<svg xmlns="http://www.w3.org/2000/svg" viewBox="0 0 300 300"><defs><style>.cls-1{fill:#e34040;}</style></defs><title>Donar</title><g id="Capa_2" data-name="Capa 2"><g id="Capa_2-2" data-name="Capa 2"><path class="cls-1" d="M264.81,12A23.21,23.21,0,0,1,288,35.19V264.81A23.21,23.21,0,0,1,264.81,288H35.19A23.21,23.21,0,0,1,12,264.81V35.19A23.21,23.21,0,0,1,35.19,12H264.81m0-12H35.19A35.18,35.18,0,0,0,0,35.19V264.81A35.18,35.18,0,0,0,35.19,300H264.81A35.18,35.18,0,0,0,300,264.81V35.19A35.18,35.18,0,0,0,264.81,0Z"/><path class="cls-1" d="M162.56,124.27l3.15,9.68h45.92a1.61,1.61,0,0,1,1,2.92l-28.92,21-8.23,6,3.14,9.67,11.05,34a1.62,1.62,0,0,1-2.49,1.81l-28.92-21-8.23-6-8.23,6-28.34,20.58a1.61,1.61,0,0,1-2.48-1.82L122,173.88l3.27-9.76-8.34-6L87.53,136.83a1.62,1.62,0,0,1,1-2.93l35.76,0h10.17l3.13-9.68,10.93-33.79a1.62,1.62,0,0,1,3.08,0ZM150,57.27a7.45,7.45,0,0,0-7.22,5.25l-18.55,57.34-60.52.06a7.59,7.59,0,0,0-4.44,13.75l49.51,35.77-19.07,57a7.62,7.62,0,0,0,7.23,10,7.47,7.47,0,0,0,4.43-1.49L150,199.66l48.9,35.53a7.45,7.45,0,0,0,4.43,1.48,7.62,7.62,0,0,0,7.25-10l-18.67-57.49,48.89-35.52A7.59,7.59,0,0,0,236.32,120H175.88L157.22,62.51A7.44,7.44,0,0,0,150,57.27Z"/></g></g></svg>