<svg xmlns="http://www.w3.org/2000/svg" viewBox="0 0 300 300"><defs><style>.cls-1{fill:#e34040;}</style></defs><title>Proyectos</title><g id="Capa_2" data-name="Capa 2"><g id="Capa_2-2" data-name="Capa 2"><path class="cls-1" d="M264.81,12A23.21,23.21,0,0,1,288,35.19V264.81A23.21,23.21,0,0,1,264.81,288H35.19A23.21,23.21,0,0,1,12,264.81V35.19A23.21,23.21,0,0,1,35.19,12H264.81m0-12H35.19A35.18,35.18,0,0,0,0,35.19V264.81A35.18,35.18,0,0,0,35.19,300H264.81A35.18,35.18,0,0,0,300,264.81V35.19A35.18,35.18,0,0,0,264.81,0Z"/><path class="cls-1" d="M240.87,68.6a219.27,219.27,0,0,0-41.35,26l-2.4,1.89c-.8.63-1.56,1.3-2.34,2l-4.67,3.94c-3,2.72-6.09,5.4-9,8.24s-5.8,5.69-8.67,8.57-5.59,5.89-8.26,8.94a351.6,351.6,0,0,0-29.71,38.46q-6.78,10.11-12.9,20.65c-1.11,1.91-2.19,3.83-3.26,5.76L75.37,157.18,59.2,178.91l54.64,46.14L127.94,237s5.41-13,7.43-17.18c5.6-11.73,16-33.65,19.84-40.2a328.17,328.17,0,0,1,25.41-37.67c2.3-3,4.74-5.89,7.15-8.82s4.93-5.73,7.53-8.47,5.21-5.47,7.84-8.18l4.08-3.92c1.35-1.32,2.75-2.58,4.16-3.83a202.4,202.4,0,0,1,36.51-26.4Z"/></g></g></svg>