<svg xmlns="http://www.w3.org/2000/svg" viewBox="0 0 300 300"><defs><style>.cls-1{fill:#e34040;}</style></defs><title>Enviar-mensaje</title><g id="Capa_2" data-name="Capa 2"><g id="Capa_2-2" data-name="Capa 2"><path class="cls-1" d="M264.81,12A23.21,23.21,0,0,1,288,35.19V264.81A23.21,23.21,0,0,1,264.81,288H35.19A23.21,23.21,0,0,1,12,264.81V35.19A23.21,23.21,0,0,1,35.19,12H264.81m0-12H35.19A35.18,35.18,0,0,0,0,35.19V264.81A35.18,35.18,0,0,0,35.19,300H264.81A35.18,35.18,0,0,0,300,264.81V35.19A35.18,35.18,0,0,0,264.81,0Z"/><path class="cls-1" d="M247.36,97.41H47v88.2a17,17,0,0,0,17,17H236.06a17,17,0,0,0,17-17V97.41Zm-20.49,11.37-74,44.54a5.51,5.51,0,0,1-5.7,0l-74-44.54Zm9.19,82.44H63.94a5.62,5.62,0,0,1-5.61-5.61V113.16l83,49.91a16.92,16.92,0,0,0,17.44,0l82.95-49.91v72.45A5.62,5.62,0,0,1,236.06,191.22Z"/></g></g></svg>