<svg xmlns="http://www.w3.org/2000/svg" viewBox="0 0 300 300"><defs><style>.cls-1{fill:#e34040;}</style></defs><title>Involucrarse</title><g id="Capa_2" data-name="Capa 2"><g id="Capa_2-2" data-name="Capa 2"><path class="cls-1" d="M264.81,12A23.21,23.21,0,0,1,288,35.19V264.81A23.21,23.21,0,0,1,264.81,288H35.19A23.21,23.21,0,0,1,12,264.81V35.19A23.21,23.21,0,0,1,35.19,12H264.81m0-12H35.19A35.18,35.18,0,0,0,0,35.19V264.81A35.18,35.18,0,0,0,35.19,300H264.81A35.18,35.18,0,0,0,300,264.81V35.19A35.18,35.18,0,0,0,264.81,0Z"/><path class="cls-1" d="M232,136.4v27.81H164v67.93H136V164.21H68V136.4h68V67.86H164V136.4Z"/></g></g></svg>