<svg xmlns="http://www.w3.org/2000/svg" xmlns:xlink="http://www.w3.org/1999/xlink" viewBox="0 0 312.78 424.97"><defs><style>.cls-1{fill:none;}.cls-2{clip-path:url(#clip-path);}.cls-3{fill:#e8e8e8;}.cls-4{fill:red;}</style><clipPath id="clip-path"><rect class="cls-1" x="0.93" y="11.08" width="309.48" height="413.89"/></clipPath></defs><title>Mapa</title><g id="Capa_2" data-name="Capa 2"><g id="BACKGROUND"><g class="cls-2"><path class="cls-3" d="M45.66,97.39l0-.34-.58.46C45.17,97.74,45.56,97.5,45.66,97.39Z"/><path class="cls-3" d="M46.16,96.46c.22.43,1.25-.55,1.26-1C47.46,94.71,46.27,96.34,46.16,96.46Z"/><path class="cls-3" d="M47.06,93.31c-.38.27-.18.58.13.84C47.33,93.85,47.47,93.42,47.06,93.31Z"/><path class="cls-3" d="M48.05,96.27,48,96c-.67.84-2.44,1.45-2.83,2.5,1.12.24,2.36-1.12,3-1.85C47.85,96.55,48,96.49,48.05,96.27Z"/><path class="cls-3" d="M46.81,100.5c.21,0,.44,0,.65,0C47.26,100.2,47,100.26,46.81,100.5Z"/><path class="cls-3" d="M13.06,113.25a5.05,5.05,0,0,0-.28.51C13,113.59,13,113.57,13.06,113.25Z"/><path class="cls-3" d="M51.65,99.32v.37a1,1,0,0,0,.82-.57A1.55,1.55,0,0,0,51.65,99.32Z"/><path class="cls-3" d="M33.39,97a.43.43,0,0,0,.67,0A.75.75,0,0,0,33.39,97Z"/><path class="cls-3" d="M49.47,93.81c-.25-.07-.35-.16-.53.1C49.2,94.08,49.27,94,49.47,93.81Z"/><path class="cls-3" d="M48.17,94.51l-.06.3a1.29,1.29,0,0,0,.43.07C48.58,94.54,48.44,94.54,48.17,94.51Z"/><path class="cls-3" d="M49.25,96.19c.08-.27,0-.42-.28-.42-.62.34,0,1.22.71.73C49.63,96.21,49.5,96.19,49.25,96.19Z"/><path class="cls-3" d="M27.28,73.13c.43-.61-.41-.8-.82-.48C26.73,72.9,26.9,73.23,27.28,73.13Z"/><path class="cls-3" d="M18,97.17c.22-.27.52-.47.45-.82-.22.13-1.12.43-.93.86Z"/><path class="cls-3" d="M19,96.86c-.14,0-.27.11-.4.16C18.76,97.29,18.8,97.1,19,96.86Z"/><path class="cls-3" d="M20.28,108.24c.16.3.41.45.68.23A.57.57,0,0,0,20.28,108.24Z"/><path class="cls-3" d="M39,93.22c-.46,0-.65.35-1,.67C38.42,94,39.1,93.72,39,93.22Z"/><path class="cls-3" d="M32.37,103.88c-.13,0-.84.71-1,.48-.06-.08.27-1.14-.13-.84s-.45,0-.27.76c-.46-.3-.44.33-.86.4,0-.05.14-1.84-.53-1.2-.36.35.28,1,.09,1.3l-.33-.17c-.45.46.29.53-.48.7-.6.14-.89-1.1-1.91.07-.45.52-1,2-.14,2.44.27-.17.24-.35-.12-.52a.59.59,0,0,1,.7-.21c-.25.53.27.23.55.12a7.76,7.76,0,0,0-1.1,1.46c.26.12,4.3-2.22,2.6-2.46.6-.33.61.43,1.07.32s.94-.9,0-.89c.35-.51,1.09,0,1.53-.31s.19-.67.75-.88A.56.56,0,0,0,32.37,103.88Z"/><path class="cls-3" d="M21.74,112.18a.4.4,0,0,0,.52-.42C22,111.76,21.74,111.89,21.74,112.18Z"/><path class="cls-3" d="M33.65,102.69c.12-.19.55-.62.21-.85l-.53.25c-2-1.25-1.72,2.54-.5.93.14.55.24.1.5.11l.73-.08C34,102.81,33.87,102.75,33.65,102.69Z"/><path class="cls-3" d="M33.88,101.1l0-.33C33,100.48,33.36,101.79,33.88,101.1Z"/><path class="cls-3" d="M24.9,109.71c.54.05.9-.56,1.24-.89C25.49,109,25.21,109.08,24.9,109.71Z"/><path class="cls-3" d="M26.3,109.44l.17-.27-.32,0Z"/><path class="cls-3" d="M66,114.1l-.32,0a1.38,1.38,0,0,0,.2.33Z"/><path class="cls-3" d="M69,119.82c.17-.16.27-.27.22-.52a1.78,1.78,0,0,0-.79.72C68.62,120.29,68.81,120.22,69,119.82Z"/><path class="cls-3" d="M69.58,120.07a.62.62,0,0,0,.12-.92C69.53,119.49,69.17,119.76,69.58,120.07Z"/><path class="cls-3" d="M65.35,109.47a2.64,2.64,0,0,0-.4.35C65.23,110,65.63,109.79,65.35,109.47Z"/><path class="cls-3" d="M69,117.33c-.88,1.32.79,1.31.32-.16Z"/><path class="cls-3" d="M67.59,110.1c-.23.42-1.06,3.35-.54,3.46-.15.33-.2.2,0,.54-.75-.22-1.31,1.12-.84,1.53.52-.55,1-.51,1.11-1.35.89.64.72-2.21.88-2.62.08.45,0,1.82.27,2C69,112.22,68.43,111.22,67.59,110.1Z"/><path class="cls-3" d="M68.66,123a.5.5,0,0,1,.14.6c.46-.21.4-.53,0-.83Z"/><path class="cls-3" d="M68.18,116.1c-.93-1.32-1.38.51-.57.59-.14.17-.85,2-.22,1.91l.27-.32c.67.45,0-1,.63-1.18,0,.19.08.39.06.58C69.08,117.45,69.12,115.87,68.18,116.1Z"/><path class="cls-3" d="M69.26,120.47a.35.35,0,0,0-.18-.51,1.31,1.31,0,0,0-.38.65A.49.49,0,0,0,69.26,120.47Z"/><path class="cls-3" d="M11.73,113.31a1.62,1.62,0,0,0-.72,1,6.93,6.93,0,0,1,1.32-1.21C12.05,113,11.8,113.08,11.73,113.31Z"/><path class="cls-3" d="M0,115.62c0,.31.23.36.53.23C.42,115.59.27,115.6,0,115.62Z"/><path class="cls-3" d="M5.23,113.73c-.85-.81-.26-1.63-1.72-1,.11,0-.74.11-.61.14-.85-.17-2.57,1.12-1.38,1.76S4,113.37,5.23,114Z"/><path class="cls-3" d="M5,115.09c.18.31.43.4.68.14C5.46,114.92,5.2,114.72,5,115.09Z"/><path class="cls-3" d="M6.63,113.44a1.51,1.51,0,0,0,.2.35.46.46,0,0,0,.22-.64A3.13,3.13,0,0,0,6.63,113.44Z"/><path class="cls-3" d="M22.23,74.71c.16.1.42.82,0,.72,1.54.87,2.13-3.31-.33-1.44A.59.59,0,0,1,22.23,74.71Z"/><path class="cls-3" d="M20.9,63a1.9,1.9,0,0,0-.63,0,1.39,1.39,0,0,0,.32.32A1.6,1.6,0,0,0,20.9,63Z"/><path class="cls-3" d="M20.91,76.27c.34.25.24.48.62.67.06-.6.71-2.2-.14-2.4C20.23,74.27,19.83,76.91,20.91,76.27Z"/><path class="cls-3" d="M11.53,112.42l-.31-.14a1.67,1.67,0,0,0,0,.39Z"/><path class="cls-3" d="M10.37,112.28c-.27.41,0,.86.36.55S10.83,111.87,10.37,112.28Z"/><path class="cls-3" d="M8.23,112.7a3.26,3.26,0,0,0,.15.44,1.1,1.1,0,0,0,.35-.2C8.6,112.7,8.47,112.68,8.23,112.7Z"/><path class="cls-3" d="M11.92,112a1.33,1.33,0,0,0-.19.14l.28.1Z"/><path class="cls-3" d="M13,114.16l.07.26a.5.5,0,0,0,.16-.49Z"/><path class="cls-3" d="M275.44,192.05c-.13,0-.27.08-.39.11C275.26,192.8,276.31,192.18,275.44,192.05Z"/><path class="cls-3" d="M270.19,189.65a3.6,3.6,0,0,0,.4.28C270.51,189.67,270.39,189.74,270.19,189.65Z"/><path class="cls-3" d="M269.39,190.05c-.1.54.36.5.75.4A.88.88,0,0,0,269.39,190.05Z"/><path class="cls-3" d="M272.07,189.65l.31.22C272.39,189.57,272.24,189.68,272.07,189.65Z"/><path class="cls-3" d="M291.71,115.39a.5.5,0,0,0,0,.6.45.45,0,0,0,.21-.66Z"/><path class="cls-3" d="M195.29,240c-.34.26-.36.56.06.77A.68.68,0,0,0,195.29,240Z"/><path class="cls-3" d="M193.53,241.33l-.38-.62a1.24,1.24,0,0,0-.32.23A.63.63,0,0,0,193.53,241.33Z"/><path class="cls-3" d="M192.1,239.28c.09.29.32.42.59.57A.82.82,0,0,1,193,239,1,1,0,0,0,192.1,239.28Z"/><path class="cls-3" d="M188.23,239.57c-.38-.21-.76-.21-1,.19C187.6,239.74,188,239.8,188.23,239.57Z"/><path class="cls-3" d="M183.65,239.89c1.51.07,2.6.31,3.69-.86C187,239,182.17,238,183.65,239.89Z"/><path class="cls-3" d="M181.51,238.27c-.31-.73-3.29-1.75-3.95-1.64.67-.32,1.5.41,2.25,0-1.45-1.68-3.95-1.17-5.89-1.25-.49,0-3.62-.52-3.68,0s1.28.61,1.59.71c-.63,1.13,1.37,1.53.78,2.37s-2.22-.46-2.91,0c-.14-1-3.5.25-.45,1.16-.2-2.27,4.74,1,4.92,1.14a15.28,15.28,0,0,1,.94-1.9c.35.47.72.23.83-.27.5.15.61.6,1.17.64s1.11-.55,1.67-.6S181.22,239.4,181.51,238.27Z"/><path class="cls-3" d="M268.22,21.49c.49-.34.22-1.62-.33-1.65C267,19.78,268,21.32,268.22,21.49Z"/><path class="cls-3" d="M267.15,18.59c0,.88.86,1,1.12.29C268.44,18.41,267.35,17.61,267.15,18.59Z"/><path class="cls-3" d="M268.9,11.45a.5.5,0,0,0,.51.2C269.61,9.3,267.26,11.77,268.9,11.45Z"/><path class="cls-3" d="M305.58,23.86c.43-.26.38-1.58.23-2C305.24,22,305.39,23.41,305.58,23.86Z"/><path class="cls-3" d="M260.15,17.72a2.63,2.63,0,0,0,.59.87,20,20,0,0,0-.49-5C258.93,14.47,260,16.68,260.15,17.72Z"/><path class="cls-3" d="M236.73,22c.23.26.27.63.66.7C237.55,22.26,237.22,21.81,236.73,22Z"/><path class="cls-3" d="M271.37,11.38c1.58,1.69.82-1.63.42-1.29s-.21.7-.46.94c-.2-.28-.2-.18-.47-.23A.62.62,0,0,0,271.37,11.38Z"/><path class="cls-3" d="M280.53,7.84c.18-.2.34-.92-.13-.81S280.29,7.74,280.53,7.84Z"/><path class="cls-3" d="M280.44,8.58c.34.41.69-.11.61-.52C280.71,8,280.4,8.21,280.44,8.58Z"/><path class="cls-3" d="M278.87,9.1c.12.63.6.09.86-.15-.4-.36-.54-.79-.89-1.12C278.53,8.44,278.48,8.45,278.87,9.1Z"/><path class="cls-3" d="M266.78,14.94c.46.89.93-.29.38-.92C266.28,13,266.87,14.49,266.78,14.94Z"/><path class="cls-3" d="M261.57,15.52a2.42,2.42,0,0,1-.21-.66c-.37.21-.21.61.1.84Z"/><path class="cls-3" d="M304.06,24.74c.15.66.47.71.53,0S304.12,24,304.06,24.74Z"/><path class="cls-3" d="M234.12,98.36l.24-.15a.59.59,0,0,0-.76.05A.77.77,0,0,0,234.12,98.36Z"/><path class="cls-3" d="M234.64,84.64c.08.69-.29.59.44,1-.85,0,.71,1.47,1.84.76-.4.52-2.35.17-1.56,1.08.46.52,2.72.31,3.22,0,2.14-1.31-2.05-4-3.29-4.72a5.18,5.18,0,0,0-.54,1c.21.33.43.65.67,1A.55.55,0,0,0,234.64,84.64Z"/><path class="cls-3" d="M234.4,94.23l0-.18C233.58,94.12,234,95,234.4,94.23Z"/><path class="cls-3" d="M235.34,108.12a1,1,0,0,0,.38-.44C235.48,107.68,235,108.15,235.34,108.12Z"/><path class="cls-3" d="M236.08,90.79c-.09.44.4.33.72.21C236.7,90.69,236.4,90.68,236.08,90.79Z"/><path class="cls-3" d="M238.31,90.82l.24-.14a.73.73,0,0,0-.73,0C237.93,90.89,238.07,90.83,238.31,90.82Z"/><path class="cls-3" d="M233.11,98.23c-.12-.1-.08-.25-.3-.15l.11.24Z"/><path class="cls-3" d="M250.88,117.2c0,.12-.18.11-.16.31C250.92,117.44,250.83,117.36,250.88,117.2Z"/><path class="cls-3" d="M235.39,108.5a2.31,2.31,0,0,0,.67-.72,5.51,5.51,0,0,0-.85.76Z"/><path class="cls-3" d="M233.79,98.8l.16-.18a.51.51,0,0,0-.55.08A2.79,2.79,0,0,0,233.79,98.8Z"/><path class="cls-3" d="M237.08,71.11a.45.45,0,0,0-.23.7c.35.06,1.43-.55,1.25-1C238,70.54,237.2,71.1,237.08,71.11Z"/><path class="cls-3" d="M238.33,92.65c-1-.46-1,.59,0,.22Z"/><path class="cls-3" d="M240.43,80.73c-.19.34.18.53.52.49A.5.5,0,0,0,240.43,80.73Z"/><path class="cls-3" d="M238.09,61.78l.12.17c.43-.7-1.57-1.15-1.76-.74S237.93,61.66,238.09,61.78Z"/><path class="cls-3" d="M237.19,62.25c.05-.11.27-.15-.12-.14Z"/><path class="cls-3" d="M240.66,86.8c1.67-.76-.14-2-.29-.84l.23,0C240.65,86.27,240.41,86.54,240.66,86.8Z"/><path class="cls-3" d="M238,78.81c-.47.57.16,1.27.59-.28A6.36,6.36,0,0,0,238,78.81Z"/><path class="cls-3" d="M239.24,79.44c.39.36,1.16-.12.85-.63C239.63,78.05,239.31,79.11,239.24,79.44Z"/><path class="cls-3" d="M237.23,90.07c-.88.17.21.77.68.25A1.6,1.6,0,0,0,237.23,90.07Z"/><path class="cls-3" d="M261.46,104.43c-.24-.62-1.15.4-.46.87C261.47,105.62,262.36,104.93,261.46,104.43Z"/><path class="cls-3" d="M262.62,104.75c-.28.16-.31.36-.07.57A3.85,3.85,0,0,1,262.62,104.75Z"/><path class="cls-3" d="M257.74,105.62c.05.1,0,.2.12.3C258,105.72,257.81,105.76,257.74,105.62Z"/><path class="cls-3" d="M312.69,26.91c-1.64-1.22-6.37-5.7-7.79-1.3,0-.09-.12.55-.1.53-.68.93-.73-.53-1.16-.29s-.35.92-.65,1.54c.09-.84-.28-1.57-.24-2.38-.77.51-1,1.45-1.69,2a7.85,7.85,0,0,1-2.42,1.21,10.41,10.41,0,0,0-4.77,3.36c-.44-.69-1.42,1.24-1.6,1.59-.66-1.42,2.94-3.55,3.53-4.91.36.58,4.15-3.2,4.46-3.82.51-1,.49-3-1.16-2.7-1.36.21-1,2.07-1.75,2.84-1.06-1.33-3,.87-4.16.15-1.64-1,1.14-1.26,1.64-1.69,1.4-1.18,0-1.64-1.31-1.85a25.31,25.31,0,0,0-2.61-.24c-.68,0-1.12-.2-1.7.11-.3.16-.38.8-.81.78l0-.37c-.72-.65-4.41,2.65-4.74,1.12s4.08-1.39,4.15-2.66c0-.18-.59-.15-.6-.15.27-.36,1.93.2,2.39.2a15.85,15.85,0,0,1,3.08,0c1.84.32,4.38,1.3,6.08.08l-.18-.42c.34,1.06,4.58-1,4-2.75-.37-1.19-4.71-2-4.68-1.78-.31-.38-3.18.62-2.81-.6a4.06,4.06,0,0,0,1,.1,2.17,2.17,0,0,1-.4-.67s2.74.44,2.16-1.48a6.72,6.72,0,0,1-.61-.58c-.78-.22-1.4.64-2.11.75-1.25.21-2.42-.53-3.62-.7a7,7,0,0,0-3.19.18,1.94,1.94,0,0,0-1.08.23,2,2,0,0,1,0,.74c-.41.17-1.27-.93-1.79-.89-1,.07-1,1.31-1.81,1.58,0,.06.47-1,.27-1.15-.37-.26-1.18,1.33-1.42,1.45.91-.48.33-1.84,1.62-2.31.72-.26,2.51.53,2.81-.62-.94-.09-.39-1.24.23-1.18.82.07-.09.74.08.86,1.24.87,4.1.17,5.91.42,1,.13,3.53.59,2.83-1.16-.46-1.16-3.13-1.71-4.17-2a38.24,38.24,0,0,0-5.59-1.52,4.73,4.73,0,0,0-1.67-.11c-.2.09-.76.77-.65.73-.11,0,0,.36-.43.49-.14,0-.26-.45-.3-.46-.55,0-.57-.85-1.35.34-.57.87,0,1.28-.94,1.85-.45.27-1.42-.61-1.55.6-.07.64,1.19,1.05,1.27,1.69-1-.07-1.62-1.14-2.35-1.75-.21.68.77,1.61,0,2.19.11-.93-.67-3.46-1.68-1.81-.26-.29,0-2.21-1.14-1.36-.12-.3.05-.54.34-.7-.71-.06-1.07,1-1.67,1.16.11,0-1.44.52-.88,0-.65.58-.14-.12-.35.92.08-.4.18,1.63-.06,1,.66,1.61,2.38,1,2.73,3.07.13.83-.24,1.27.36,2,.4.5,1.27.36,1.32,1.2-.76-.6-1.66-.93-2.14-1.81s-.19-2.28-1.12-3-1.53-.19-2.14.21c-.12.08.1.63,0,.7-.69.34-.63-.11-1.35-.29-2.45-.61-1.87.68-1.42,2.7s.47,5.09,2.62,6.05c-.51.55-2.15-1-2.23-1.4-3.31,3.54-2.53-9.45-5.63-6.76-1.21,1.05,0,2.87-.29,4.11-.63,2.39-1,.14-2,.51-.75.26.15,1.93-1,1.13-.78-.53-.5-2.2-1-2.91-.05,0-2.88,4-2.9,3.87-.34-1.73,1.89-3.92,2.3-5.59.2-.8.4-2.39-1-2.21-1.08.14-.56,1-.79,1.82-.62-.47-.35-1.15-1.34-.78-.49.18.32,1.26-.56,1.16.13-1.48-3.56-1.43-4.34-1-2.16,1.33.44,3.63-.16,5.44-1.2-1-.46-3.58-1.89-4.28-2.29-1.12-1.75,2.92-2.21,3.89-.27.57-1.09,1.65-1.78,1.67s-.61-.77-1.45-.84c-2-.15.21,2.6-1.33,3.05.08-.63.64-2.75-.36-3-1.3-.37-1.31,1.69-2.25,2.06-.21-.48-1.17,0-.39.3-1.2.5-4.15,1.56-4.12,3.2,0,2.36,3.69.56,4.73.39.15,1.09-.67.46-1,.93a.9.9,0,0,0-.64.26c-.19.24-.16.39.07.45.85-1.06-.64,2-.05.67a18.28,18.28,0,0,1-1.27,1.7c-1,1.44-1.57,2.36-3.38,2.41-1.32,0-3.69-1.17-4.33.66-.56-.87-3.92.33-4.6.53s-1.91.38-2.31.87c-.85,1,0,0,.19,1.07-.53-.21-.82.47-1.38.64.41.77,1.29,1.15,1.7,1.91.11.22-.19.84-.19.84.35.26,2.09-.16,2.09-.2,0,.56-1.15.61-1.13,1.1s1.17.42,1.38.2c-.35.36-1.7,1.74,0,1.49.69-.1.42-1,1-1.08.21,0,.42.66.63.73.45.15,1-.08,1.45.1,1.43.55.75.8.87,2.08-.63-.4-3-2-3.67-1.26-.93.94,2.58,1.7,3.11,1.85-.47.27-6.77-2-6.24-.68-.58-.71-1.09.35-1,.89.3-.14.28-.06.53,0-.76.33-.24.72.23.83.7.17.71-.9,1.4-.81-.81.91-1.19,1.37-.2,2.33.29-.52.88.2,1.38,0,.12,1.1-1.63.33-2.08.83a1.52,1.52,0,0,0,.87,2.33c-.31.21,1.43,1.75,1.8,1.66s.5-2.09.9-2,.33.94.37,1.16a1.54,1.54,0,0,1,.89-.58s.51.1.47,0c.15.21-.53,1-.4,1.37.22.59.72-1.07.73-1.13a6.24,6.24,0,0,1,.88.61c.1.05.27-.54.32-.51.54.39.33.65.47,1.25.94-1.3,5.32-.68,4.93,1.08.31-.23,1.47.65,1.74.85,1.1.8,1.79,1.71.87,3h.38c.2.14-.78.79-.77,1,.08.9.85,1.64,1.25,2.39,1.08,2,.16,2.23-.9,3.86.56.32,1-.73,1.55-.56a7.08,7.08,0,0,0,0,3c-.66-.73-.05.61,0,.84l-.32.15c-.09.52.48.37.5.82s-.64.57-.65,1c0,1.17.44.26.73,1.31.58,2.1-.82,1.29-1.61,2.15s.8.09,1,.81c-.41.13-2,1.45-1.53,1.91s2.05-.54,2-.9c.12.81-2,1.41-2.1,1.76-1-.73-.84,1.14-.62,1.59-.28.57,4.16.34,2.37-.78.53.16.48-.26.51-.71,1,1.63.71-2.38.89-2.51a13.06,13.06,0,0,1,0,2.93c.74-.1.68-1.23,1.52-1.21-.2.74-1.09.93-.33,1.66.16.16,1.49-.06,1.51.06.09.76-1.73.47-2.07.77-1,.87,1.7.36,1.79.41-.35.21-1.89.79-1.81,1.37,0,.34,2.42-1.46,1.8,0a.88.88,0,0,0-1.07.12c-.07.13,1.44.46,1.56.59s-1.56-.08-1.59,0c-.3.55.92,1,1.05,1.46-.05,0-.72-.38-.73-.34-.07.2,1.28,1.21,1,1.35a1.35,1.35,0,0,1-.81-.26c.13,0,.36.94,1.16.85-.47,1.24-2.26-1.27-2.66-1.62-.87-.76-3.81-2.28-3.67,0,.07,1,2,2.41,2.84,2.76.44.17,3.69.25,3.72.83a.48.48,0,0,0-.57.17,3.1,3.1,0,0,0,.46.35c-.38.39-.77.58-1.12,1,.16-.2.71.67.56.42-.49,0-1.5.37-1.4,1,.07.49,1.17-.21,1.15.56a1.18,1.18,0,0,1-.69.17v.13c.36,0,.8,0,.84.43-.38,0-1.18,0-1.49-.3s.21-.65-.24-.69c0,0-1.29,2.08.08,1.59-.22.38-.72.53-.78.93-1.28-.24-2,.16-3.23.4a1.47,1.47,0,0,0,.75,0c-1,.48,1.08,1.33,1.74.67-1.06-.47.48-.67.89-.6-1.5,1.52,0,1.08.44,2.45-1.4,0-2.42-1.12-3.5-1.61a4.13,4.13,0,0,1,.18.76c-.09-.06-1.18-1.21-1.33-1-.48.67,1.29,1.23,1.57,1.53-.87.11-1.22-.45-2,.11-.17.12-.53,1.35-.73,1.32a4.89,4.89,0,0,0,2.2-1,1.38,1.38,0,0,0,1.3.79c.52-.2.13-.62.55-1a3,3,0,0,0,.5-.06c.64.26-.15.33-.23.55-.17.46.87.31,1,.27-.31-.43.67-.36.71,0,.1.7-2.1-.26-1.58.92.13.28,1.48.75,1.74.53-1.42,1.23-4-2.21-6.19-.59-2.95,2.2,3,.1,2.69,1.14-.13.41-3.33-.23-3.33.39a.51.51,0,0,0,.36.28c-.07,0-.77.16-.78.15.47.4,2.1-.15,2.26.54s-.65.25-1,.6A2.21,2.21,0,0,0,235,99c-.28.18-1.51-.36-1.56.18s1.18.21,1.38.55c-.62.07-1.51-.33-1.92.29-.62.93.71.86,1.21.71,1.21-.35,2.55-3,4-2.18-.39-.24-4.76,2.62-5.2,3.09.33,0,.66-.13.69.2.51-.2,2,0,2.33-.36-.59.64-2.18,0-2.47,1a1.68,1.68,0,0,0,.74.47c-.3.22-.43.47,0,.55-.23.67.92-.31,1.06-.37.66-.29,1.75-1.12,2.2-.07-.42,0-1-.3-1.37.1-.21-.22-2.46,1.3-2.36,1.45s.63-.43.66.05c0,.21-.15,1-.12,1,.6.46,1.34-.34,1.67.1-.57.63-2.1.71-2.06,1.8.06,1.59,1.87-.75,2.31-.67-.71.65.47.22.8-.34.26.57.52,0,.91.07-.47.61-.19,1,.12,1.57-.51.06-.82-.89-1.39-.63-.31.14.62.7.73.73-.11.17-2.19.31-2.61.66.48.39,2-.17,2.56-.24-.31.55-4.54.81-1.74,1.25-1.78,1.61-.06.19,1.06.69-.51.5-.78.12-1.32.28a1.24,1.24,0,0,0,.69.28c-.38.23-.77.08-1.13.42.35.45,1,0,1.54.24-.35.39-1.18,0-1.46.49.43-.84,1.42,1.3.81,1,.32.17.54-.15.74.37.58-.87-.47,1.54-.47,1.47,0,.53,1.13,0,.56.74.44-.09.65.19.3.46.38.31-.06.56-.31.79.25,0,1.11-.87,1.29-.43.1.25-1.12,1.14-1.11,1.14.21.2,1-.53,1.14,0s-1.45.72-1.12,1.36,1.48-.86,1.75-.26c.11.26-.82.5-.88.64l.35.07c0,.06-.21.32-.2.34.22.22.64.31.87.52s.88.19.91.63c0,.24-.52.5-.38.77,0,0,4.28-.73,3.93-1.84.18.55-.59,1.26-.53,1.63a14.73,14.73,0,0,0,1.72-1.11c0,.4-.95,1.23-1.31,1.4.28.15.68-.14.93-.36l.06.1c-.43.44-1.22.83-1.42,1.43.38-.23.67-.31.71.31.11-.3.48-.82.79-.62l-.39.54c0,.41.88-.31,1-.31-.14.17-1,1.28-.73,1.48s.85-1.09,1.06-1.2l.07.09c-.29.41-.14,1.39-.39,1.67.09-.34.19-.91.64-.54-.14-.57.59-.61.58-.79.06.87.83,1.06,1.55,1.25a6.36,6.36,0,0,0,.46-.57.67.67,0,0,0-.74-.12c.35-.86-.69-.63-1.07-1.23.8-.16,1.89,1.23,2.43.09-.33-.09-.86.13-.88-.27.81.24.89-.31,0-.51.62-.31-.23-.29-.41-.65.46,0,1.65.56,1.66-.26,0-.56-1.14-.23-1.37-.65,1.57.38,1,0,.65-.81,1.41-.16.24.06.68-.65a2.83,2.83,0,0,0,.77,0c.28-.21-.83-.68-.87-.77.83.18,1.72.42,1.54-.88-.1-.76-1-.89-1.19-1.61.14,0,1.65,1,1.74.6s-1.45-1.43-1.68-1.41c.42,0,1.26-.62,1.45-.61s1.92,1.38,1.48.13c0,0-1.83-1.22-1.09-1.32.41-.05.74.83,1.11.7.55-.18-.67-1-.67-1.26a5.6,5.6,0,0,1,1.21.82c.46-.53-.74-.76-.69-1.07.14-1,.31-.12.81-.21s1,.56,1.24,0-.91-1-1.42-1c.07-.35,3.12,1,1.62-.73,1.48.25-1-1.45-1-1.4a2.74,2.74,0,0,1,1.78-.1c.39-1-.72-1.93-.36-3a1,1,0,0,0,.59.45c.08-.26.88.27.93.25.53-.14.29-.51.54-.75s.17-.69.49-1,1,.28,1-.42c1,.39,1.11.87,1.89-.14.19-.24-.27-.59-.12-.8a2.7,2.7,0,0,1,.61-.33c.38-.72.54-2.07,1.5-.94-.71.54-1,1.35,0,1.86a6.11,6.11,0,0,0,.27-1.27c.46.26.35.87.86,1.12a5.56,5.56,0,0,1,.78-.51c.34-.06.05.63.63.15s1.21-.75.48-1.52c-.05,0,1.32.2,1.09.11a.46.46,0,0,1,.24.39c1,0,.69-1.12,1.32-1.37l0,.34c.06,0,1.8-2.22,1.65-2.66.48.38.86-.07.39-.46a4.77,4.77,0,0,1,.42.3c.05-1.41,1.9-1.26,2.4-2.37.22-.48.13-2.94-.39-3,1.31.28.54,2.11,2,2.41a10.18,10.18,0,0,0,2.58-.44c-.1,0,1.57,0,1.41-.11.07-.51,1.39-.42,1.34-.91.56.74.57-.69,1.15.21.33-1.36,3.85-.12,3.87-2.11a.55.55,0,0,1,.62.09,8.5,8.5,0,0,1,.69-.84c.3.88.5-.22.46-.6.67.29,1,.09,1.23-.61.58.82.56-.84,1.31-.52l.14-.34c.3-.07,2-.69,2.06-1.44-.8.4-5.11-.43-5-1.24-.92.93-3.18.39-3.65,1.54a6.48,6.48,0,0,0-1.67-.73c.53-.53,3.77.22,3.12-.86-.3-.5-4.85-.26-4.88-.18.17-.54,4.11-1.32,2.23-2.5.38-.38.53.27.86,0l-.06-.87c.88.16,1,1.07,2.09.93.82-.1,2.09-1,1.54-2-.41-.67-4-.61-4-1,.68,1,2.37-1.44.22-1.19.57-.47.31-.56.65-1.1.61.61.5,1.48,1.32,1.9.54.28,1.11,0,1.7.33a4.94,4.94,0,0,1,2,2c.56,1,.14,2.62,1.46,3.4,2.29,1.36.73-1.19,1.7-1.78-.57.35.49,2.42,1.14,2.32s1-2.34.26-2.51c.28-.4.14-.76-.35-.43,0,0,1.21-1.43.34-1.07-.08-.38.25-.69.3-1.07-.82,0-.58,1-1.06,1.25a25,25,0,0,1,.8-2.48,1.48,1.48,0,0,0-.8.46,3.42,3.42,0,0,1,.26-.59c-.38-.1-.75.36-1,.65,0-.59.7-.83.61-1.44s-1-1-1.4-1.32c-.58-.47-2.11-1.92-2.76-.78.25-.93-1.24-.53-1.65-.64.5-.75,3.09.59,2.6-1.06-.44-1.46-2,.25-2.64-.58a3.35,3.35,0,0,0-.95.2c.12-.18,1-.27.92-.59s-1-.09-1.13-.12v-.14c.66.13,3.66.1,3.37-.92-.24-.84-4-.35-4-.43.2-.9,1.57.34,1.76-.7.11-.66-1.49-.61-.94-1.5.86.6,2.07,2.22,3.26,1.35.72-.53.74-2.85-.34-2.92.69,0,1.27,1.85,1.74,2.27.29-1,0-1.36,1.17-1.27.11,0,2.11,1,2.11,1,0,.71-1.86-.6-2.22-.39-1.06.62,1,1.88,1.61,2,1.07.15,5.58-1.54,3.67-3,.21.16-2-.66-1.66-.79a12.68,12.68,0,0,0-.25,1.7,25,25,0,0,0-.53-3.19c.86-.35,1-.46.73-1.44a12.69,12.69,0,0,1,2.79,1.44c.43.21,1.86,1.37,1.68-.46-.14-1.38-2.5-.28-2.71-1.54,1.42-.24-.15-1.31-.54-1.6-.64-.47-.83,1.45-1.14-.75.82.32.74,1.17,1.78.62.78-.41.71-.72.21-1.32s-2.77-.27-2.41-1.64c.15.19.57,1.14,1,.88s-.2-.77-.19-1.13c1.21.33,1.58,2.82,3,3.08,1.81.34.48-2,.88-2.85a1.73,1.73,0,0,0,.52.16c-.35-.71-3.33-2-3.33-2.05.46.73,3.07.41,2.85-.65-.17-.77-2.15,0-2.62-.28.06,0-.82-1.64-1.12-1.1.16-.28.62-.08.87-.49,0,0-.18-1.55.08-1.43s.1.87.61.48c.19-.14,1.15-.38.92-.72l-.74-.38a1.52,1.52,0,0,1,1.07,0c-.07-.11-.06-.24-.14-.36.86-.47,3,1.37,3.48,1.94.19-.71.78-1.54.68-2.32s-.78-1.2-.9-1.93c-1.36.86-.74.53-2-.18.31-.22-.62-1,.28-.61,0-.25-.47-.77-.13-1s1.48,2,1.49.51c0-1-2-1.66-2.29-2.6,0,.13.16-.88.09-.78a.64.64,0,0,1,1,0c-.11,0-.2.16-.32.21,1,.14.87.71,1.64-.37.61-.86.61-2.8.83-3.8a12.15,12.15,0,0,1,1.29-3.76c.49-.82,2-2,2.09-3,.25-2.37-4.18-.14-4.15-.52.88.14.22-.71-.19-.84.79-.11.83-1.06,1.52-1.28.93-.3,1.39.53,2.21.74.51.13,3.09.28,2.48-.84.63.08.67-.24.59-.7-.11-.66-1.16-.47-1.55-.54-1.3-.22-3,.25-4.16-.42,2.08-.45,4.09-.13,6.14-.42.79-.12,1.68-.1,2.08-1,.12-.28-.43-.72-.38-.79.64-1,.75-.22,1.84-.53S313.17,28,312.69,26.91Z"/><path class="cls-3" d="M251.56,115.86a1.55,1.55,0,0,0-1-.27C250.7,115.9,251.34,116.23,251.56,115.86Z"/><path class="cls-3" d="M255.62,108.21a5.85,5.85,0,0,1-.5-.79c-.16.33.15,1.64.51,1.71A1.91,1.91,0,0,1,255.62,108.21Z"/><path class="cls-3" d="M252.44,115v.34a.5.5,0,0,0,.13-.47Z"/><path class="cls-3" d="M253.23,113.35c-.13-.39-.7-.59-1-.74C252.3,113,252.92,113.46,253.23,113.35Z"/><path class="cls-3" d="M257.45,106.4c-.14-.09-.15-.2-.34-.15.08.21.12.2.29.33Z"/><path class="cls-3" d="M250.53,117.83c.07,0,0,.22.1.06S250.61,117.88,250.53,117.83Z"/><path class="cls-3" d="M250.94,116.53c.11,0,.11.27.2-.07C251.12,116.46,250.92,116.52,250.94,116.53Z"/><path class="cls-3" d="M238.48,122.21c.28.37.54,0,.12-.27C238.36,121.76,238.2,122,238.48,122.21Z"/><path class="cls-3" d="M233.34,103.54l-.16.26a1,1,0,0,0,.5-.08C233.63,103.47,233.53,103.54,233.34,103.54Z"/><path class="cls-3" d="M233.11,103c.12.2.21.3.47.28C233.65,102.9,233.43,102.79,233.11,103Z"/><path class="cls-3" d="M248.5,122.16l-.19.09C248.68,122.52,248.93,122.34,248.5,122.16Z"/><path class="cls-3" d="M241.84,121.93l.26-.16c-.17-.22-.41-.17-.62.09C241.59,122,241.69,121.94,241.84,121.93Z"/><path class="cls-3" d="M246.5,125.33l.32-.16a2.5,2.5,0,0,0-1-.44A.74.74,0,0,0,246.5,125.33Z"/><path class="cls-3" d="M243.31,124.58c.32-.31.2-.89-.12-.37C243.05,124.44,243.12,125,243.31,124.58Z"/><path class="cls-3" d="M240.77,82.1l.2.19c.15-.27,0-.45-.28-.52Z"/><path class="cls-3" d="M296.83,58c.49-.31-.11-.72-.44-.46S296.51,58.08,296.83,58Z"/><path class="cls-3" d="M293.81,74.45l-.11.16c.28.17.42.08.4-.25Z"/><path class="cls-3" d="M296.4,65.2c-.57.83.31,1,.43,1.39C296.67,66.14,297.71,65.3,296.4,65.2Z"/><path class="cls-3" d="M295.27,67.81c-1.14.22-2.26,1.51-.49,1.92C296.28,70.08,296.37,68.46,295.27,67.81Z"/><path class="cls-3" d="M298.51,67.13c-.81.48.36.84.24,0Z"/><path class="cls-3" d="M295.91,56.75c-.08.25,0,.5.36.3C296.22,56.78,296.12,56.77,295.91,56.75Z"/><path class="cls-3" d="M300.66,47.19c-.25.06-.38.09-.12.31C300.66,47.4,300.61,47.32,300.66,47.19Z"/><path class="cls-3" d="M300.94,64.72V65c-.36-.16-.39-.43-.52-.73,0,0-.2-.43-.2-.41a1.82,1.82,0,0,0,.13-.28s.58-.4,0-.49c.15,0-.93.41-.84.35-1,.68-.27,3.06,1.07,1.94.06.32.14.27.38.44.11-.4.88-1.08.13-1.38Z"/><path class="cls-3" d="M300.2,48.79c.37.17.43-.43.37-.73A1.94,1.94,0,0,0,300.2,48.79Z"/><path class="cls-3" d="M298.94,49.52c-.62,0,.23.83.63.84C299.52,50,299.13,49.91,298.94,49.52Z"/><path class="cls-3" d="M291.4,76.69c-1.09-2-3.64-.92-1.61,1,.29.28,1.69,1.63,2.2,1.29.75-.49-1.28-1.44-.83-1.65s1.08.21,1.38.39C292.92,77.18,291.77,76.87,291.4,76.69Z"/><path class="cls-3" d="M293,75.54c-.4-.41-4.35-1.32-4.35-.51.56.71,2.33,1.07,3.16,1.09.39,0,.12.64.73.32C292.9,76.25,292.65,75.72,293,75.54Z"/><path class="cls-3" d="M286.33,84l-.19-.13a.39.39,0,0,0,.12.58C286.39,84.27,286.36,84.16,286.33,84Z"/><path class="cls-3" d="M284.06,86.87a.5.5,0,0,0,.5,0v-.17C284.26,86.6,284.23,86.87,284.06,86.87Z"/><path class="cls-3" d="M288.69,90.48l0,.17c.3-.05.33,0,.34-.31Z"/><path class="cls-3" d="M282.49,85.08l.11-.23a.6.6,0,0,0-.49.24C282.25,85.16,282.34,85.12,282.49,85.08Z"/><path class="cls-3" d="M285.46,86.42c1.1.44.81-1.73.19-2.09-.82-.47-2.92.51-3.43,1.11C280.55,87.43,284.48,87.13,285.46,86.42Z"/><path class="cls-3" d="M287.56,75.43c-.07.26,0,.38.28.34a4.11,4.11,0,0,0,.28-.6C287.93,75.26,287.73,75.33,287.56,75.43Z"/><path class="cls-3" d="M299.85,56.75c-.4-.66-.35.22-.37.31a4.56,4.56,0,0,1,.08.47c0,.62-.18,2.6.19,3C300.3,60,300.15,57.46,299.85,56.75Z"/><path class="cls-3" d="M288.87,73.31a2.15,2.15,0,0,0,1.7.6,2.37,2.37,0,0,0-3.64-.39c.33.53,4.6,2,4.59.9,0,.12-3.38-.73-3-1.09Z"/><path class="cls-3" d="M237.3,68.72c-.13.08-.24,0-.24.23C237.26,68.92,237.21,68.82,237.3,68.72Z"/><path class="cls-3" d="M237.3,68.23c0,.14-.08.32.18.1Z"/><path class="cls-3" d="M302.18,50.4c0-.15,0-.31,0-.46a2.68,2.68,0,0,0-.59,1.62C301.59,51.63,302.11,50.47,302.18,50.4Z"/><path class="cls-3" d="M238.05,65.28c-.08-.22-.69-.81-.84-.37S237.9,65.35,238.05,65.28Z"/><path class="cls-3" d="M238,69.83c-.22-.09-.33-.13-.49.12C237.79,70.15,237.83,70,238,69.83Z"/><path class="cls-3" d="M236.86,65.86c-.23.41.37.47.61.17A3.38,3.38,0,0,1,236.86,65.86Z"/><path class="cls-3" d="M237,69.52c.13.26.31.25.47,0C237.27,69.56,237.11,69.52,237,69.52Z"/><path class="cls-3" d="M238,71.63l0-.17a2.21,2.21,0,0,0-.32.29C237.87,71.77,237.9,71.69,238,71.63Z"/><path class="cls-3" d="M237.43,72.19l.25,0-.06-.21C237.37,72,237.5,72.08,237.43,72.19Z"/><path class="cls-3" d="M236.7,72.18c.08.24.1.33.34,0C236.89,72,236.86,72.12,236.7,72.18Z"/><path class="cls-3" d="M237.63,67.64c-.07-.19-.17-.36-.24-.55C237.29,67.39,237.26,68,237.63,67.64Z"/><path class="cls-3" d="M236.61,68.38c.07,0,.21.14.12-.2Z"/><path class="cls-3" d="M301.24,35a1.66,1.66,0,0,0-.14,1c.14-.1,1.5-.24,1.2-.79C302.12,34.91,301.54,34.92,301.24,35Z"/><path class="cls-3" d="M303.05,41.28c-.7.29-.57,1.25-.46,1.77C303.1,42.83,303.46,41.57,303.05,41.28Z"/><path class="cls-3" d="M238.08,68.35c-.07-.06,0-.14-.16-.14C238,68.35,238,68.29,238.08,68.35Z"/><path class="cls-3" d="M236.09,74.22c.26,0,1.26-.66,1-.85S236.06,73.87,236.09,74.22Z"/><path class="cls-3" d="M219.35,97.83c.57-.33-.12-1.37-.57-1.2.33-.49-.05-.79-.53-.75.45-.62-.86-.17-.55.62-.74,0,0-.76-.54-.87-.25,0-.56,1-.72,1.06a4.85,4.85,0,0,0,.5-1.52c-.14,0-1.21,1.31-1.39,1.06-.36-.49,1.45-1.62,1.58-2-.39-.21-1.47.65-1.7,1a2.17,2.17,0,0,1,.49-.86c-.51-.12-1.4.56-1.86-.06a3.2,3.2,0,0,0,1.26-.16,3.34,3.34,0,0,1-.62-.33c.24.06.34,0,.57-.06-.6-1.22.17-1.27-1.55-1.45.22-.39,1.12-1.13.81-1.65-.72.59-.93,1.5-1.54,2a10.83,10.83,0,0,1,.62-2c-.28-.23-1.59,1.9-1.61,1.91,0-.31,1.14-1.69.62-2-.24-.12-.64.64-.72.75-.14-.52.71-1.26-.24-1.41.24-.44-.61-.37-.89-.21.15-.29.17-.25.48-.33-.4-.16-.94-.25-1.19.19-.17-1,1.4-.52,1.79-.43a2.09,2.09,0,0,0,.21-.54c-.83.12-1-.28-1.71.08.08-.15.08-.41.17-.57a.5.5,0,0,0-.57.35c-.1-.45-.71-1-1.22-.83.45-.8.74.09,1.3-.06-.18-.69-1.39-.58-1.78-1,.84-.22,1.86.61,2.74.48-.27-.58-.45-.59-.93-1,.27-.21,1.22.21,1.35-.19.24-.73-2-.24-2.12-.28a4.63,4.63,0,0,0,1.69-.68,1.33,1.33,0,0,1-.89-.39c.57.4,4,1.9,3.39.1-.42-1.17-3-1-3.93-1.46.88-.14,2.15.06,2.93-.38,1.46-.83.44-1.55.18-2.84-.82-.12-.61.76-.89,1.18,0,0-.73.49-.69.49a20.34,20.34,0,0,0-2.84.68c.48-.62,2.79-.54,2.78-1.55,0-1.53-2.68.65-3.15.72a4,4,0,0,0,.77-.51c-.1-.27-.28-.33-.54-.17A24.31,24.31,0,0,1,211.93,79v.41c-.14-.17.64-1.12-.44-1.8a1.9,1.9,0,0,0-2.49.55c-.5-.68,1.33-.67,1.21-1.54-2,.58-2,2.28-3.68,3.15.1-.41,1.7-1.25,1.28-1.81s-1.18,1-1.56,1.05c.46-1.5,2.67-1.17,3-2.75.08-.33.34-1.13-.36-.92s-.21,1.24-.78,1.6c.49-1-2.3.06-2.68,0,.62-.33,1.63-1.2.25-.92a3.08,3.08,0,0,1,1.47-1.12c.63-.16.66.78,1.31.24,1.08-.9-.74-2.47-1.12-3.25a4.52,4.52,0,0,0-1.28,2.26c-.55.24-.43,1-.95,1.2a6.59,6.59,0,0,0,.42-1.57c-.57-.6-1,1-1.56,1.07.32-.75,1.46-1.63,1.31-2.5-.32.19-1.31,1.52-1.53,1.49a1.61,1.61,0,0,1,.31-.78c-.54-.35,1.57-1,1.56-1.71-.76-.13-.7.69-1.26.79,0-.18-.09-.24-.11-.38-.55.41-1.41,2-2.1,1.81a3.4,3.4,0,0,0,1-1c-.15,0-.23-.1-.44-.05.32-.38,1.12-.3,1-.87-.31.19-1,.58-1.27.48a2.18,2.18,0,0,0,.76-.42.37.37,0,0,0-.54-.23c.29-.57,2.5-.54,2.27-1.57-.43-1.88-3,1.41-3.46,1.41,0-1,1.4-.8,1.69-1.48.48-1.15-.89-.48-1.37-.17.63-.59,2.08-.44,2.27-1.44s-1.8-2.09-2.57-2.34-2-.48-2.51.18c-.86,1.18,1.26,1.36,1.41,2.34-.73-.13-1.71-1.37-2.32-1l-.09-.91s0,2-.11,2.1a1.37,1.37,0,0,0-.32-1c-.3.28-.75.8-.3,1.12-.33.34-.68,0-1.08-.09.7-1.24,1.16-1,.89-2.45l-.68.7c-.8-1.15-.53-.92-.67.57-.39-.18-.14-.54-.37-.83-.07.41-1.35,1.64-1.7,1.6.46-.2-.09-1,.16-1.08l.34.14c0-.58,1.05-1.66,1.47-2-.78-.09-1,.92-1.73.93.62-.67,1.44-1,1.92-1.78a10.46,10.46,0,0,0,.63-2.55,1.7,1.7,0,0,1-.52-.55c.54-1.39.9-2.35-.72-2.76a4.63,4.63,0,0,0-2.44.4c-.69.57-.22,1.32-.71,1.72-.16-1.56-.87-1.08-1.51-.38-.49-1.59-1.55.5.42,1.33-1.37.06-1-1.41-2.69-.74a11.71,11.71,0,0,0,1.91,1.88c-1,.16-1-1.39-1.88-1.42s-1.6,1.63-.92,2.17c-.93.06-.16.92.22,1.11s.72-1.19,1.12-.24c-.35,0-.6.19-.53.51-.43-.06-.66,1.19-.93,1-.46-.25.17-.81-.47-1,.14,0-1.18,1.2-1.19,1.21l-.14-.32c-1,.72.7,2.05.8,2.84.18,1.29-1,2.92-1.88,3.77.74-1.35.57-1.3-.36-2.08.47-.23,1-.68,1.17-.07.61-1-1-2.74-.88-3.88a21.34,21.34,0,0,1,1.33-3.76,6.11,6.11,0,0,1,2.91-3.42c.44-.3,2.27-1.11,2.12-1.9-.38-2-7.92-.58-6.68,1.41-.55-.39-1.88.48-1.67,1.15-.91-.23-.59,1.1-.92,1.36-.46-1-2.45,1.8-2.26,2.51.11-.06.25,0,.35-.09,0,.29-1.23,1.38-1.46,1.72a6.15,6.15,0,0,0-1.16,2.14c0,1.26.71,1,1.57,1.55S180.08,70.42,181,71a8,8,0,0,1-2-.09,4.6,4.6,0,0,1-.75-.71c-.24-.08-1.22-.64-1.43-.33a7.19,7.19,0,0,1-.13.81c-.3,1.75.79,1.85,1.06,3.21a1.46,1.46,0,0,0-.35-.18c.4,1.82,2.36.1,2.28.06.09,0,0,.81.24.75s.92-1.12,1.22-.75c-.34-.41-1,4,.87,2.27-.13-.06-.24-.2-.37-.25.45-.17,1,.1,1.46-.09s.1-.57.6-.45c-1-.24-.14,1.52.27,1.77.61.37,1.35,0,2,.13s1.22.85,2,1c.72-.58-1.58-1.94-1.65-2.53.79.37,4.23,5.25,3,1.91.75,0,1.26.41,2,.4-.25,1.32,2.53,1.26,2.38-.41,0-.51-.67-1-.75-1.56-.13-.88.57-1.11.52-.31.4-.42,0-1.22.74-1.29-.09,1-.89,2.42.79,2.85,0-.16,0-.29.19-.34-.17,0,.72.12.53,0,.72.43-.86,2.54-.84,3.11.56-.74,1.1.21,1.77.19a3.52,3.52,0,0,0-1.06.48s1.51,1.58,1.54,2c.09,1.43-1.17.39-1.61,1.42.48.29-.27.65.49.84.41.11,1.2-.77,1.53-1l0,.51c.13.18,1-.81,1.23-.72.08.29,0,.49-.4.59.53.21-.1.38-.31.57.92-.47.28.91.56,1.21.85.92.56-.65.89-.68.59,0,.38,1.16.66,1.44-1.56.26.57,1.08.6,1.54.21-.19.25-.6.64-.63.18.83-.57,2.14-.62,3-.05.68.23,1.46-.21,2-.28.35-3.7,1.17-1.74,1.88-1.07.08-3.15.68-3.53,1.81-.26.81.36,1,.39,1.7s-.61,1.28-.57,2c-1.12-2.37-.55.58-1.62-.39-.94,1.28-4.41-.76-4.88-1.47-.55.92-2.38,2.11-2.22,3.27.11.78,1.28,1,.94,2a6,6,0,0,0,2.53-.22c.29-.13.44-.93.71-.94.44,0,.64.75,1,.78,1,.06,1.07-.53,2-.7a9.63,9.63,0,0,0-.32,1.52c.45-.14.48-.56.6-1a3.58,3.58,0,0,1,.65.09.65.65,0,0,0-.12.81c-.06-.49.44-.73.77-1,0-.07-.38,2.88.59,2.46a.6.6,0,0,0,.19.67,3.87,3.87,0,0,0,.27-.48c0,.56-.55,1,0,1.35a.91.91,0,0,1,.5-.83c-.35.62.38,1.25,1,1-.45.67-1.33.44-1.68.9,1.14.24,1.27,2.9,3.15,2.68.07.59.45-.11.88.23-.6.23-.28.93.26.86,0,.58,5.24,3.5,5.53,3.13-.18.22-.07-1.84.13-1.51-.42.17-.24-.35-.35-.63-.1.14-.27.22-.37.36,0-.3-.07-.49-.36-.48.55-.35.37-1.19-.33-.94.18-.43-.17-1.2-.68-1.08.09-.09.14-.23.23-.32-.16,0-.3-.07-.47,0,.31-.53-.43-.72-.84-.67-.06-.85-1-1.64-.78-2.44.4.32,1,.33,1.37.7s.48.79.77,1.14c0-.22-.45-.94-.09-1.11s1.47,2.32,1.6,2.62c.43-.29,0-1.2.21-1.7,0,.61.14,1.7.71,1.92a.64.64,0,0,0,0-.63c.44,0,.39.55.49.87,0-.31,0-.28.27-.46-.08.47.24,1.36.67.6.11.5-.44,1.74.65,1.64-.14-.56-.15-1.14-.33-1.75.3-.07.65.22.85.17.63-.16,0-2.91,0-3.26.33,1,0,1.35.77,2.19.32-.41-.08-1.58.57-1.83-.35-.33-.6-1.38-.91-1.47.21-.39-.13-.79-.41-1.07.4,0,.62-.24.9-.49-.3-.31-.78-.39-1-.72s.5-.45.37-.69l-.45-.15a2.14,2.14,0,0,1-.2.53l0-.28-.71.05c0-.05.58-1,.29-1-.48,0-.7-.22-.73.55a3.14,3.14,0,0,1-.34-1.29c-.3-.12,0-.39-.43-.53a2.08,2.08,0,0,1,.73-.36c-.27-.12-.52-.26-.78-.4-.06-.43,1.07-.43.25-.86-.41-.22-1.18.59-1.57.68.48-.37,1.87-1.36.62-1.45.2-.29.14-.43-.21-.37-.09-1.83-.59-.39-1.29-1.54a1.28,1.28,0,0,0,1.09-.22,19.65,19.65,0,0,1,1.44,2l.16-.38c.62,1.11,1.47-.91.1-1.07a.58.58,0,0,0-.15-.83c.5-.31.22.91.93.62,0-.23-.06-.22.29-.16a1.12,1.12,0,0,0-.71-1c.45-.11,1.35.88,1.07-.27a4.37,4.37,0,0,1,.68,1.46l-.31.29c.82.07,1.37,1.56,2.2-.37.14.67-1.37,1.09-1,1.7.48.88,2.37-1.27,2.8-1.36-.08,1-1.49.89-1.91,1.52-.63.94,0,.41.56.79a1.11,1.11,0,0,0-.79.4.42.42,0,0,0,.66,0c-.08.17-.83.47-.66.76l1,.18c-.82.53-.67.45-.43,1.38.29-.27.36-.81.71-.89-.24,1.07-.35,1.21.66.93-.91,1.54,2.06,1,.67,0,.07,0,.3,0,.4.09a6.52,6.52,0,0,0-.3-1.57c.45.35.72-.25.15-.43.64.07.42-.59.53-1,.32.45.19,1.81.92.8l.18.52c.56.07.27-1,.07-1.23,1.38.29,1.08.36.32-.91,3.05,1.14.13,0,.47-.73a.51.51,0,0,0,.67.39s-.25-.94,0-.88a.56.56,0,0,1,.27.75,2.57,2.57,0,0,0,1.55-.21c-.1-.32-.38-.42-.85-.27.22-.14,1.19-.12.45-.5.17-.28-.18-.41-.49-.19.31-.62,1.09-.38.95.31A2.37,2.37,0,0,0,219.35,97.83Z"/><path class="cls-3" d="M190.25,38.52c.29.8-.22,2.26,1,2.23C191.07,40.41,191.76,37.37,190.25,38.52Z"/><path class="cls-3" d="M191.7,36.41l-.29-.67C191.09,36,191.32,36.78,191.7,36.41Z"/><path class="cls-3" d="M188.67,31.66c-1.53-1.86-5.44-.35-2.4,1.31.65.36,2.21,1,2.92.58,1.61-.82-.41-1.48-.2-1.71Z"/><path class="cls-3" d="M181.42,35.26c-.2.49.76,2,1.3,1.81-.95,1.29.52.74.25,1.85-.23-.25-.49-.2-.84-.23,0,.31-.26.4-.36.73.33-.24,1.26-.14,1.57-.25,0,.29,1.39,1.51,1.44.84.3.36.45-.24.74,0s0,.9,0,1.24a5.7,5.7,0,0,1-1.3,4.13,4.47,4.47,0,0,0-1.16,2.92c0,.49.3,2.36.91,1.13.35.34.61,0,.79-.39.55.62-1.37,1.18.15,2a3.78,3.78,0,0,1,.47.06c1.25.07.93-.85,1.71-1.08a2.66,2.66,0,0,1,0,.75c.27-.1.4-.7.77-.79s-.67,1.55-.65,1.65c.23,1.44,1.38.34,2.17.68-.24.29.23.78.52.74s.2-.95.43-1.15c.11.21-.2,1,.17,1.15s.41-.74.8-.72c-.32,1.21.61.73,1-.12.14.35-.13.58-.13.94.67,0,.54-.55.86-1a1.48,1.48,0,0,0,2.25,1.35c.16-.1,1.16-1.91,1-2,.72.2-.67,3.76.81,2.56-.08.82,2,.53,2.44.39,1.29-.37,1.38-.86,1.59-2.13.33.3.25.72.6,1.07.17-.41.6-.32.95-.21.64-1.64-1.36-.58-1.32-1.2s1-.34,1.15-.74c.58.78,1-.85.81-1.19.27-.08.15-.14.31-.27a1.16,1.16,0,0,0-.93,0,1.13,1.13,0,0,0,.17-.88c-.78-.25-.85-.92-1.43-1.25a5.36,5.36,0,0,0-2.16-.45c-.55-.09-2.6-1.15-2.74.07a.93.93,0,0,0-1.65.17c.07-1.08-2.86-.29-1.05.57a13,13,0,0,1-1.76-.46c.51,0,.44-.27.4-.59a4.26,4.26,0,0,1-.41-.83c-.78-.4-.23,1.07-1,.61.68-.81-.6-.45-.86-.46.19-.37,0-.68.07-1.08a.91.91,0,0,0-.87,1.16c-.93.21.43-2.85-.85-1.78,0-.45.7-.55.51-1.2a3.22,3.22,0,0,1-1.22.16c.91-.63-.85,0-1,0,.38-1.66.84-.47,1.83-.65a.84.84,0,0,0-.84-.73l.22-.14a3,3,0,0,0-1-.78c.46-.45,1.71.56,2,1l.22-.25c.68,1.22,1.5.25.83-.87-.1-.16-2-1.47-1.77-1.71s1.78,1.24,1.63.12c-.2-1.5-3.16-.26-3.56-1.33A4.46,4.46,0,0,1,185,39.7c-.17-.77,2.93-2.64,1.13-3.83-.09.14-5.23-3.3-4,.11C181.78,36,181.66,35.6,181.42,35.26Z"/><path class="cls-3" d="M176,46c-.06.18-.2.26.14.29-.09.16-.06.34-.13.5.1-.08.27-.12.39-.3l.1.06c-.58.94.63.5.57,1.25,0,0,.4-.17.3-.26l.28.06c-.05,1,1.43,1.12,2,1.56,0-.17.12-.17,0-.44,1.11-.06,1.37-3,1.1-3.74s-2.85-2.29-2.29-.77c-.35-.11-.79-.62-1-.09a.51.51,0,0,1,.54.18c0,.15-.6.39-.71.58a1.83,1.83,0,0,1,.18.42A1,1,0,0,0,176,46Z"/><path class="cls-3" d="M198.69,65c.88-1.11,2.28-.08,3.3.13.28.06.9.51,1.21.32s.7-.77,0-.81c.57-.64-.17-1.32.1-2-.4-.3-.34-1.16-.74-1.65a5.57,5.57,0,0,1-.39-.49c-1-.72-3.85-1.8-4.58-.71,0,0-.74,1.23-.74,1,0,.43.52.78.55,1.22s-.38.62-.4,1C196.91,64.08,197.52,65.29,198.69,65Z"/><path class="cls-3" d="M180.6,41.65c.18.56-.19.6.07,1.31.34,0,.6-1.33.65-1.51C181,41.39,180.74,41.39,180.6,41.65Z"/><path class="cls-3" d="M167.74,37.59c.51.14,2.4.73,2.65,0,.08-.25-2.53-.28-2.74-.17Z"/><path class="cls-3" d="M142.76,32.68c.06.81,4.19-2,4.36-2.72-1.33-.32-2.9.61-3.89,1.41C142.9,31.64,141.56,32.66,142.76,32.68Z"/><path class="cls-3" d="M162.49,75.21a2.67,2.67,0,0,0-.25-.51C161.79,75.27,162.32,76.17,162.49,75.21Z"/><path class="cls-3" d="M135.26,77.86c0,.19-.18.31.12.37C135.34,78.11,135.29,78,135.26,77.86Z"/><path class="cls-3" d="M155.52,54.21c.87-1.58,5.53-3.94,1.84-5.19-1.52-.52-3-.25-3,1.56C154.3,51.39,154.86,53.68,155.52,54.21Z"/><path class="cls-3" d="M136.41,79.24l-.15.26c-.42-.35-.29.42-.11.49.35.13.45-.6.53-.75Z"/><path class="cls-3" d="M135.74,80.83c.06-.22.13-.32,0-.52a2,2,0,0,0-.38,1.76C135.73,81.74,136.12,81.28,135.74,80.83Z"/><path class="cls-3" d="M135.23,78.4a4.07,4.07,0,0,0-.28-.55C134.81,78.1,134.94,78.29,135.23,78.4Z"/><path class="cls-3" d="M163.79,41.88c.08.62.9.21,1.17,0,.65-.45.24-1.16.31-1.79C164.68,40,163,41.52,163.79,41.88Z"/><path class="cls-3" d="M168.13,36.64c.43,0,3.79.83,2.28-.78C169.77,35.17,166.86,35.66,168.13,36.64Z"/><path class="cls-3" d="M167.53,38.9c.5.13,2.59,0,2.87-.6C170.47,38.16,167.8,38.07,167.53,38.9Z"/><path class="cls-3" d="M168.9,50.37c-.32.36-.69.31-1.1.34.81,1.79,2.89-.1,3.89.24C171.75,49.82,169.52,50.87,168.9,50.37Z"/><path class="cls-3" d="M206.49,46.45c-.35.23-1.41,1.14-1.39,1.59.18.13.35.06.49-.23.11.26.19.21.39.33-.07-1,.59-.93.9-1.77C206.76,46.4,206.61,46.41,206.49,46.45Z"/><path class="cls-3" d="M71.81,137c-.3-.41-.8.15-.79.54A.61.61,0,0,0,71.81,137Z"/><path class="cls-3" d="M76.82,146.83a2.94,2.94,0,0,0-.88-.94c0,.59.33.78.75,1.16Z"/><path class="cls-3" d="M70.86,138.32a.69.69,0,0,0,.27.66,1.33,1.33,0,0,0,0-1A3.06,3.06,0,0,0,70.86,138.32Z"/><path class="cls-3" d="M71.24,136.27l0,.35C71.56,136.54,71.68,136.07,71.24,136.27Z"/><path class="cls-3" d="M70.05,133.24c-.06.77.26.76.22,1.31C70.7,134.15,70.39,133.6,70.05,133.24Z"/><path class="cls-3" d="M71.23,134.28c-.19.07-.37.19-.54.27C71,134.85,71.57,134.78,71.23,134.28Z"/><path class="cls-3" d="M169.14,32.83A1.62,1.62,0,0,0,169,35c1.16,1,1-.69,1.38-1.32a2.16,2.16,0,0,1-.58-.05C170.23,33.08,169.87,32.71,169.14,32.83Z"/><path class="cls-3" d="M171.26,30c1.14-.42,1.34-4.85.4-4C171.22,26.38,169.7,30.19,171.26,30Z"/><path class="cls-3" d="M75.06,144.26c0,.22.06.43.1.64l.22-.73Z"/><path class="cls-3" d="M70.11,132.63c.26-.16.23-.34,0-.55A5,5,0,0,0,70.11,132.63Z"/><path class="cls-3" d="M171.81,30.57l.16-.34a.92.92,0,0,0-.95.26A.63.63,0,0,0,171.81,30.57Z"/><path class="cls-3" d="M163.78,18.44c.47.13,1-.32,1.47,0s.08,1,.47,1.36c.4-.2.34-.56.54-.87.53.55.19,1.17.91,1.62-.1-.06.56,0,.48,0,2,.38,3.06-2.85,1.15-3.59-1-.37-5.78.08-5.43,1.57A2.77,2.77,0,0,0,163.78,18.44Z"/><path class="cls-3" d="M72.18,142.78c-1.25-.69-1.61-1.33-3.13-1.6.11,1,.77,1.2,1.65,1.3-.49.43-1,0-1.3.7.38.18-.27,1.32.65.66,0,.38.17.53.54.38a.52.52,0,0,0,.91.48c-1.44,1.67,0,.61.62.55,0,.52-.64.74-.48,1.23l.22-.08c0,.69.41.49.89.44a1.43,1.43,0,0,0,1.69,1.61c-1.4,1.46,1.68,2.2,2.63,2.55a29.15,29.15,0,0,0-.46-3.07,24.76,24.76,0,0,0-1.52-2.57c-.39-.73-.42-1.35-1.18-1.82C73.35,143.19,72.39,143.66,72.18,142.78Z"/><path class="cls-3" d="M69.73,129.36c-.69-.15.12,1.91.54,2.14A4.68,4.68,0,0,0,69.73,129.36Z"/><path class="cls-3" d="M119.77,50c.41,0,.87-.18.76.39-.15-.09-.36-.08-.51-.16A9,9,0,0,1,120.2,55c1.2.2,1.69-1.07,2.69-1.19,1.39-.16.55.62,1.62.86,1.91.44,3.31-2.86,4-4.17,1.06,1.59,2.74-1,3.57-1.58,2.1-1.42,4.84-.87,7.07-1.83,1.69-.72,1.74-2.06,1.44-3.74-.15-.79-.32-2-1.18-2.35-1.19-.51-1.67.6-2.53,1.14-.1-1,1.63-1.63-.44-1.43,1.13-.74-2.19-2.45-2.7-2.6-1.12-.33-4.53-.72-5.19.6.1-.21,0,.63,0,.53-.2,3.15-3.47,3.69-4,6.72-.43-.06-1.17.05-1.34-.42-.06.69-3.33,4.34-4.26,3.79C118.94,49.86,119.36,49.84,119.77,50Z"/><path class="cls-3" d="M139.6,26.9c-.06,0-.9,1.26-.92,1.22-.15-.3,2.7.42,2.28.49.17,0,1.18-1.05,1.31-1.06.76-.08-.65,2.17-.31,2.48l.3-.24c.22.06.25.56.12.59.54-.14,2-1.12,1.77-1.85.56,0,.39-.76.75-1-.58.34.11,1.63.9,1.26s.53-2.12,1-2.73c.05.16.21.28.27.44.91-.59.82-1.29,1.82-1.59-.14,0,.71-.13.51-.24,1,.56-2.5,3.45-1.65,4.43.71.82,1.74-1,2.19-1.35,1.36-1,2.29-.83,2.75-2.74l.5.62a6.09,6.09,0,0,1,.38-1.54c.57-.66,1.61-.27,2-1.23.63-1.61-2.13-2.41-1.44-.5-.32.16-.51,0-.51-.33a1.61,1.61,0,0,0-.33.46c-2.71-2.58-4.92-.11-7.49,1.24-1.26.66-6.47,1.4-6.79,3C139.35,26.61,139.37,26.77,139.6,26.9Z"/><path class="cls-3" d="M154.61,26.69l-.34.09c.07-.07,1.18,1.33,1.65,1C156.65,27.3,155.33,26.17,154.61,26.69Z"/><path class="cls-3" d="M114.63,59.76c.1-.14-.07-.25.2-.32C114.17,59.19,114,60,114.63,59.76Z"/><path class="cls-3" d="M68.42,130.17a7.16,7.16,0,0,0,1.2,1.73c.67-.53-.78-1.66-1.08-2A.88.88,0,0,0,68.42,130.17Z"/><path class="cls-3" d="M160,22.48c0,.59.61,2.91.58,2.94.89,1.22,5-.15,4.38-1.78-.45.29-.67,0-.53-.38s1.07-.34,1.28-.46c.7-.39,1.34-.39.73-1.27C165.17,19.73,161,21.47,160,22.48Z"/><path class="cls-3" d="M159.05,21.66c1.28,1,1.23-1.71,1.43-2.22C159.42,20,157.92,19.51,159.05,21.66Z"/><path class="cls-3" d="M155.81,36.66l-.19-.19c-.4.7-.84.15-.94-.33s.49-1,.62-1.35c-.34,0-1.24-.13-1.3-.4.7-.48,1-.5,1.05-1.5.1-1.47-.59-.95-1.34-1.58-.26-.22-.53-.13-.77-.45s.41-.88.22-1.28c-.47-.92-2.27-.88-2.84-.11a8.84,8.84,0,0,1,.93,1.31c-.85-.3-2.65-1.4-3.12.08s1.49.58,2,1.51c-.64.29-4.58-.55-4.39,1,.11.85,2.19.59,2.76,1-1.31,1.26-4.61-1-4.61,1.53l-.37,0c-.09.31,1.32,1.38,1.38,1.29v-.39s1.59,2.71,1.34.7a.8.8,0,0,0,.57.13c-.55.56,0,1.11.63.92-.05,0,.8-.64.79-.63.15-.15.14-.43.3-.64,0,.17.18.31.22.48a.91.91,0,0,1,1-.42c-2.13,1.61,1.84,1.64,2.8,1.21,0,.52.74.28.92-.06,0,0-6.73,1-7,1.86-.93,2.62,6,2.38,7.12.7.5.52,3,.13,3-.63.67.14-.06.83.42,1.06s.88-.53,1.33-.47.48.8.87.9a3.75,3.75,0,0,0,2.09-.2,4.15,4.15,0,0,1,.42-.42c.94-1.26,3.19-2.31,3.32-4,.21-2.83-2.18-.67-2.87.39-.24-.64.74-1.36-.24-1.69-.52-.18-1.46.66-1.57,1.13-1-.94,3.58-2.19.24-2.21.19-1.19,3-3.63,1.7-4.85-.65-.61-2.53.68-2.08,1.41-1.92.16-.6,1.9-1.13,3-.31.66-.88.72-1.17,1.47s1.26.62-.12,1.31C158.65,37.71,155.85,37.4,155.81,36.66Z"/><path class="cls-3" d="M219.14,150.86c.18-.12.51-.09.44-.62A1,1,0,0,0,219.14,150.86Z"/><path class="cls-3" d="M199.65,30.29c.36-.52-.69,0-.67.7A.89.89,0,0,0,199.65,30.29Z"/><path class="cls-3" d="M220.36,157.29c-.08,0-.21,0-.35-.08C219.94,158.18,220.91,157.62,220.36,157.29Z"/><path class="cls-3" d="M221.25,32.08c-.16-.14-.72-.24-.6.11S221.29,32.49,221.25,32.08Z"/><path class="cls-3" d="M219,158c.38.28.88-.3.55-.6C219.55,158,219,157.46,219,158Z"/><path class="cls-3" d="M210.3,87.73c.19.13.27.24.5.1C210.63,87.67,210.52,87.71,210.3,87.73Z"/><path class="cls-3" d="M201.93,36.45c.08-.38-.32-1-.46-.43C201.38,36.34,201.65,36.79,201.93,36.45Z"/><path class="cls-3" d="M177.64,28.29c.63-.49,1,.34,1.11-.7a1.47,1.47,0,0,0-1.07-1.33C176.33,26.18,176.37,28.4,177.64,28.29Z"/><path class="cls-3" d="M172,35.81a1.57,1.57,0,0,0-.57.77,2.49,2.49,0,0,1,.68.37c-1.48.08-.48,2.95-1.27,3-.23,0-.45-1.07-.44-1.2-.31.1-1.43.26-.83.82a5.5,5.5,0,0,1-1.09.12c-.28,1.2,4.88.67,5.63,1.45-.31.33-2.14.43-2.65.54.31,0,.36.08.59.23-.61.44-1.37-.66-1.54.36-.15-.16-.26-.13-.38-.2a.65.65,0,0,0,.62.68.38.38,0,0,0,.13.57c-.69-.09-1.44.6-.62,1.09.64.37.87-.15,1.53-.29-.67.47,0,1,.36.38,1,1.69,1.26,0,1.78-.64.18.37.1.74.39,1.08.24-.29.23-.88.39-1.25a.39.39,0,0,1-.58-.16c0-.2,1.42-1.28,1.55-1.07l0,.51c.58-.86.56-1.82,1.18-2.71s1.78-1.41,1.93-2.71c.79-.49-.07-1.1-.42-1.5.49,0,.41-1-.14-1l.12.5c-.7-.12-1.09.2-1.16,1,0,0-.51.23-.43.24-.26,0,.06-1.67-.87-2-2.08-.71-1.53,1.59-1.4,2.64l-.67-.25s1,3.09-.28,1.67C173.3,38.6,172.62,35.27,172,35.81Z"/><path class="cls-3" d="M176.15,23.1a16.1,16.1,0,0,0,3.19,0c.1.64-.55.56-.21,1.27.41.87,1,.24,1.15,1.55.14,1-1.06,3.18,1.25,2.49,1.43-.43,1.48-2.53,2.09-3.64.43-.77,1.59-1.59,1.44-2.61-.09-.58-.66-.58-.84-1.1-.73.13-.38-.61-.05-.79-.08-.76.66-1.79-.51-2-.83-.15-1,1.1-1.73,1.1.52,0,1-3.35-.4-3.76a6.89,6.89,0,0,1-.91,0c-1.07.34-.48.59-1-.45-.42.25-1.43,1.09-1.36,1.67,0,.3.68.88.67.52,0,.64.16-.09,0,.68-.08.43-1.4.37-1.06,1.15,1.2-.52,1.25-1,1.7-.11,0,.11-.77.13-.58.58s.56.23.9.55c-.36.31-1,.69-1.43.44-.21.69.86.17.2,1s-.49-.3-1-.35C175.91,21.13,176.43,21.67,176.15,23.1Z"/><path class="cls-3" d="M173.8,34.45c.7-.28,1.47-.17,2.14-.57-.31-.31-2.84,0-2.63.56Z"/><path class="cls-3" d="M193.53,27.83c-.3.37-.17.84-.16,1.29l.32-.3c-.52.06,3.28,2.88,2.24.68,1-.12.45.68.7,1.27.67-.44.34-1.34.51-2s.71-1.05.87-1.66c.13.63-.4,1.12-.49,1.71a6.51,6.51,0,0,0,.08,2.33c.79-.57,1.1-2.38,1.81-2.71.24.71-.17,2,.78.67.13-.18.18-1.25.31-1.6.31-.82.95-1.48,1.23-2.33.15,1.26-1,2-.69,3.47.65-.6,1.57-3.11,2.26-3.27a2.86,2.86,0,0,0-.08.93c.48-.11.83-.54,1.28-.71s1.32-.1,1.78-.42c1-.71.75-2.13.73-3.18-.52.15-.47,1.14-1.1,1.18,1-.05.32-3.2-.4-1.64-.5-.51-.83.2-1.35,0,.54-.93,1.87-1.18,2.6-1.94.18-.19.87-.63.77-1-.18-.57-.59,0-.91-.38,0,0,2.1-2.72.73-2.76-.65,0-1,2.43-1.25,2.34-.55-.2,0-1.85.09-2.24,1.1.27-.53-2.22-1-.49-1.62-2.14,2.13-7.3-1.52-8.15-.38-.08-1.35-.19-1.58.28-.43.9.5.69.81,1s1.57.29.75,1.09c-.38.38-1.47.1-1.89-.05a.5.5,0,0,0,.52.43c-.58.73-1.54-.46-2.09.46s.68,1.16.65,2h-.35c-.17.25.31.59.08.85s-.82-.41-1-.41c-1.56,0-.3.13-1.15,1.07-.27-.37-1.33-1.39-1.81-.79-.74.89,1,1.48,1.34,2a1.26,1.26,0,0,1-.64.05c.68.53,1,1.23,2,.64.48.14-.33,1.1-.53,1.19-.55.22-1.32-.57-1.78-.74-2.07-.8-.38.48-1.47.94l-.32-.12c.1.44-.51,3.3,1.49,2-.07.65-1.93.24-2.32.72-.69.86.25,2.52.94,1.22.72.54-.73.68-.43,1s1.21-.1,1.46-.4c-.07.25,0,.27-.21.49.39.21.85-.06,1.05.37a.4.4,0,0,0-.44.21,8.74,8.74,0,0,1,2.54.93c-.39,0-2.34-.5-2.49,0s2.39.45,2.58.65c-1.51.27-2.94-1.4-4.41-.87-1.76.63,0,1.47-.89,2.47-.15-1.19-1.2-.13-.57.81,0,0,1.08.51,1.19.52-.39.11-1.2-.38-1.5.06C193,27.31,193,28.22,193.53,27.83Z"/><path class="cls-3" d="M199.22,12c.46.36.57-.21-.05-.31S198.67,12.05,199.22,12Z"/><path class="cls-3" d="M190.55,14.89a1.64,1.64,0,0,1,.39-.14c.17.75-.53.72-.07,1.66,1-.86,2-2.24.64-2.85.08-.13.09-.32.19-.45C191.23,13.23,189,14.8,190.55,14.89Z"/><path class="cls-3" d="M185.36,26.36c.32.12,1,.67.85,1.1-.08.23-1.08-.24-1.3.27,0-.07.26,1.84.27,1.87.24-.15.47-.29.7-.45a3.7,3.7,0,0,1,.42.46c.46-.05,2,.2,2.31.07.66-.31,1.37-1.46.34-1.86.89-.58,1.13-.71,1.08-1.7a5.76,5.76,0,0,0-1.76-3c-1.48-.9-3.79,1.83-2.56,3-.14,0-.3,0-.43,0Z"/><path class="cls-3" d="M192,34.25c0,.78-.52,2.6,1,1.9S192.94,33.24,192,34.25Z"/><path class="cls-3" d="M204.54,27.05c.13-.22,2-1.28.14-1.15C203.78,26,203.13,27.35,204.54,27.05Z"/><path class="cls-3" d="M206.58,116.36c-.43.18.6,1.1.85,1.06C208.25,117.31,207.5,115.71,206.58,116.36Z"/><path class="cls-3" d="M201,119.45c-.46,0-1.82,1.2-1.08,1.47S201,119.86,201,119.45Z"/><path class="cls-3" d="M197.66,111.35c.87.86,1-1.28-.62-.9C197.41,110.76,197.74,110.73,197.66,111.35Z"/><path class="cls-3" d="M73.35,143.06l0-.33a1.85,1.85,0,0,0-.58.06Z"/><path class="cls-3" d="M73.72,142.14a.42.42,0,0,0-.71.34A.76.76,0,0,0,73.72,142.14Z"/><path class="cls-3" d="M71.61,134.68c.27-.23.55-.5.28-.89A.93.93,0,0,0,71.61,134.68Z"/><path class="cls-3" d="M208.84,113.1l-.7.3c.13,0,1.45.09,1.37-.15A.43.43,0,0,0,208.84,113.1Z"/><path class="cls-3" d="M72.62,141.79a2.3,2.3,0,0,0,.45.05,1.33,1.33,0,0,0-.18-.38A2.78,2.78,0,0,0,72.62,141.79Z"/><path class="cls-3" d="M190.88,79.11c-.32-.45-1.24-.21-1.09.1.34.05.82,1.35.84.45C191.51,80.06,192,79,190.88,79.11Z"/><path class="cls-3" d="M197.81,88.24c-.95-.12,0,2,1,1.5s.12-1.82-.63-1.35c0-.15-.06-.32,0-.47C198,88,197.89,88.07,197.81,88.24Z"/><path class="cls-3" d="M195,78.49c-.18.11-.29.12-.29.38C195,78.82,195,78.69,195,78.49Z"/><path class="cls-3" d="M194.47,86.74c-1.32.55-3.23,3.69-1.26,4.42C196.63,92.44,197.75,84.73,194.47,86.74Z"/><path class="cls-3" d="M195.29,83.24c.11-.26,1.54-1.29.23-1.29C194.9,82,194.54,83.31,195.29,83.24Z"/><path class="cls-3" d="M192.71,81.83c-.52,0-2.65,1-2.16,1.8.34-.21,3.42-1.53,2.46-2Z"/><path class="cls-3" d="M194,80c-.08.12-1,1-1,1C193.45,80.89,195,80.1,194,80Z"/><path class="cls-3" d="M214.47,166.14c.27-.14.19-1.22.08-1.52C214.18,164.87,214.34,165.77,214.47,166.14Z"/><path class="cls-3" d="M209.9,106.08c.09.13.13.22.29.23C210.22,106,210.16,105.84,209.9,106.08Z"/><path class="cls-3" d="M214.86,166.33l.1.14c.1-.18.14-.2.13-.41C214.87,166.08,214.94,166.18,214.86,166.33Z"/><path class="cls-3" d="M94.6,57.37c-.13-.15-.12-.29-.34-.11C94.32,57.55,94.4,57.42,94.6,57.37Z"/><path class="cls-3" d="M210.59,108.78l-.15-.13c-.06.47-.34,1.15,0,1.54A2.48,2.48,0,0,0,210.59,108.78Z"/><path class="cls-3" d="M207.92,6.63a2.12,2.12,0,0,0,0,.87c.23,0,1.74-1.79,1.76-.69.3-.15.29-.46.53-.66-.12.5,0,1,.59.84-1,.7-2,.33-2.08,1.69.49.11,3.34-1,3.55-.54s-2.32.5-2.37.52c-1.36.55-.7.46,0,1.26-.61.31-1.51-.45-1.87.41s.65.67,1.07.84c2.06.79,4.46.44,6.53-.07.31,1.12-3.53,1.3-4.17,1.23-1-.11-5.32-1.35-3.56,1.64.94,1.6,2.68,0,3.85-.51,1.56-.66,4.64-1.28,6,.07-1.33,1.15-3.75-.55-5.38.24-.61.3-2.81,2.19-1.06,2.27v.27c.94.56,2,1.06,3,.45.67-.41.54-1.4,1.61-1.14l-.44.23c-.4.92,2.2.16,2.26.17-.67,1-3.7.57-1.74,1.81,1.11.7,2.94.26,4-.26.12-.06,1.47-1,1.27-1a5.36,5.36,0,0,1,.57-.69c-.1.09.94-.4.65-.42.13,0,.4.36.35.37.43-.06.79-.83,1.13-1a15.24,15.24,0,0,1,2.38-.83c.07.88-4.21,1.75-4.52,3.51a3.74,3.74,0,0,1,3.27,1c-1.4.14-2.85-.3-4.27-.16-3.15.32.34.62.33,1.17,0,0-4.75-.61-5.18-.62-2.86,0-2.43,2.77-.74,4.23-.4-.12-.79,0-.89.42,0-.41-.53-1.11-.81-.53-1-.91-.38-2.71-1.07-3.82-.57-.91-2.27-2.27-3.44-1.56-1.34.82.23,3.17-.32,3.52-.21-1-1.08-.78-1.39-.05-.16.41.57,1.4.63,1.85,0,.22-.53,3-.05,2.82a2.53,2.53,0,0,1-.44,1.1s-.85-1.14-1-.71.75,1.32,1.05,1.54a2.72,2.72,0,0,0,3.36-.15c.23,1.19-.22.65-.78,1,0,0-1.5.42-1.21.54s.66.08.69.54c-.5-.11-.53.26-.42.67-1.19-1.84-3.73-3.79-6.07-2.41-.69.4-.72,1.13-1.28,1.66s-2.08.56-2,1.78c.25.06.2.14.4.24a.81.81,0,0,0-.69.27c.29.26,1.74,1.09,1.49,0,.54.18.81-.11,1.23-.41.17.65-1.47,2.26.51,1.21.78-.42,1.37-2.5,2.35-2.5-.09.53-1.4,1-.83,1.67-.49,0-1,.8-.3.7-.11.11-1.52,1.23-.27.84-.28.29-3.66.69-.72.81a5.31,5.31,0,0,1-.88.46l.36.08c-.43.91-.72,1.22.58.48.12,1-1.1,2.23.91,1.52,1-.36,1.91-2.8,3.1-2.52-.6.29-.88,1-1.31,1.5-.6.64-1.41,1-2,1.67l.25.25c-.15.16-1.75-1-1.68,0-2-.33-1.2-1.89-1.73-3.23-.76-1.94-3-1.45-2.95.62,0-.18.22.94.13.72-.81.58.57.69.88.77l-.6.22c.58.13.23.44,0,.72.38.08.63.28,1,.37-.64.76-4.15-.34-5.36.25-.93.44-3.51,3.38-1.11,2.92l-.19.44a7.51,7.51,0,0,1,1.2-1.9c-.29.56-1.24,2-.7,2.59.88,1,1.09-1,1.47-1.29.08.91-.36,2.56.6,1.47-.07.08.18-.27.15-.21.33-.61.11-.39.16-1.08,1.16,1-.81,2.74,1.79,3,1.84.18.11-.94,1.12-2,.39.51.11,1.38,1.06,1.09.5-.16.14-1.21.74-1.36-.38.09-.17,2.26.57,2.16.92-.14-.09-2.27,1.18-2.23-.54.45-1,2.29,0,2.54,1.24.32,1-2.38.88-2.91.61.75-.38,1.48.87,1.92-1.18.12-.09,1.73.43.82.48.7.62,1.2-.22,1.71,1.51,1.64,2.83-1.2,4.26-1.36a4.62,4.62,0,0,0-.11,1.07c.23.27,1.87-1.34,2-1.65s.55-1.18.06-1.49c-.71-.45-1,.63-1.67.48a1,1,0,0,0,.42-.7l-.38,0c.15.06,1.37-3.85-1.23-1.58,1.69-2-2.5-.46-2.15-.43.14-.44.39-.76-.16-1a5.68,5.68,0,0,0,1.29-.15,1.2,1.2,0,0,0-.24-.57c.3-.53.29-1.37.78-1.76-.05,1.38-.38,2.47,1.31,3.25,0,0,1.71.3,1.63.31.62-.1.59-.84,1.21-.89l-.2.25c.46.21.81-.13.93-.53.54.59,2-1.84.79-1.45.74-.46.68-1.17,1.65-1.29s2.11,1.08,3,.33-1.78-1.24-1.27-1.75,2,.83,2.69.22c1.2-1-.78-1.18-1.1-2.08,1.1-.19,1.7.84,2.65-.06s.26-2.64-1.23-2c.21-.91,1.72-.55.28-1.26-.22-.11-2.15.11-1.75-.52-.36-.17-.75-.23-.88-.61.41.3,1.39.14,1.32.81.3-.08,2,.3,2.11-.19a8.2,8.2,0,0,0-2.25-1c1.32-.58,2.07,1.08,2.93,1.71,2.43,1.8.88-.45,1.93-.81a15.19,15.19,0,0,0-4-1.12c.16-.48-.6-.43-.57-.86s.92.24,1,.21l.2-.71c.2.13,2,2.34,2,.93,0-.47-1.9-1-1.35-1.55.28.67,1.28.11,1.25,1l.23-.16c.27.86,1.77.84,2.37.81l.15-.37c.48-.09,1.46.79,1.18-.79-.06-.37-1.59-1.69-1.74-1.37.59-1.25,2,.78,2.42,1.19a2.48,2.48,0,0,0,1.81.93c.76-.07,1.68-.71.65-1.34.46-.51,1.86.17,1.77-.84-.07-.76-1.71-.46-2.19-.56.18-.36.58-.16.64-.66,0,0,.36.55.23.52.35.09,2.32.2,2.53-.07,0,0-.16-1.94-.19-2,.76.38.18,1.29,1.3,1.21.9-.06.71-.85,1.19-1.2a6.31,6.31,0,0,1,2.16-1c2.56-.79,6.15-1.66,7.36-4.36-1.38,0-2.43.57-3.75.78s-2.87-.27-4.15.45c0-.36-.16-.51-.52-.37.2-.79.93-.22,1.41-.57.14,1,4.76-.38,5.27-1-.59-.79-2.43-.06-2.77-1a1.39,1.39,0,0,0,1,.21c-.1-.52-.66-.64-.65-1.23.47.47.73,1,1.35,1.25l.25-.15c.39.4,2,.9,2.56.43-.33-.21-.9-.11-.82-.57.7.13,1.9,1.15,2.12.16.86,1.4,4.58-1.25,5.3-1.89s1.88-1.89,1.16-2.93c-.28-.39-2.3-.66-2.2-.42-.33-.84,2.2-1.6.71-2.44,2.07-.66-1.34-1.56-1.07-.48,0-.14.76-1.24.18-1.18-.39,0-.41,1-.83.89s.1-1-.09-1c-1.5.06-3.06.92-4.66,1,.79-.08,4.58-.57,3.82-2.06-.35-.68-1.1-.11-1.58-.37-.68-.35-.31-.14-.56-1-.48.07-1.39.82-1.27-.13a2,2,0,0,0-.68.41c-.47-.4.28-.4,0-.89l.36-.12c.2-.2-1-.67-1.07-.68-.89-.1-1.19.33-1.85.82-.53-.49.22-.66.29-1.18a6.87,6.87,0,0,0-2.18.36c-.63.31-.44.94-1.11.53-.15-.09-.29-1.41-.66-1.74a5.31,5.31,0,0,0-2.87-.72c-1.35.4-.26,3.31-1.45,3.24-.9-.06,0-2-.41-2.4a2.12,2.12,0,0,1-.84.76c-.45,0-.09-.8-.26-1-.15.1-.49.93-.8.73s.29-.92-.12-1.28-1.5.13-1.93.36c.17.37.54.39.83.6-1.27-.25.91,2,.08,2.39-.28-.32-1.38-1.54-1.07-.19-.71-.24-.21-3.9-1.74-2.75-1.18.89,1.2,3.15.08,4.06-.53-.79,0-3.43-1.49-3.29-1.38.13.35,1.3.28,2-1.59-.17-1.73,1.71-3.32,1.89a8.53,8.53,0,0,0,0-1.75c.11.36-1.05-1.12-.68-.76-.6-.57-.84-1.47-1.68-.54-.23.26.07.8-.37,1.2s-.93-.13-1.17.24c-.66,1,2.17,2.54,1.09,3.34,0-.14,0-.33.06-.48a.63.63,0,0,0-.53.43c-.36-.33-.14-.71-.2-1.07-.65.34-.27.69-.7,1.09-.19-.48,0-1.92-.73-1.95-.44,0-1.05,1.52-.88,1.58-1-.39.26-2.44-.81-2.76-1.26-.38-.67,1.57-1.4,2,0-.34,0-.42-.06-.71-.43.28-.28.92-.81,1,0-1.32.07-1.58-1.4-1.43-.57.06-2.77.71-2.61,1.58C207.56,5.87,207.54,6.49,207.92,6.63Z"/><path class="cls-3" d="M203.59,168.64c.36.17.69.23.84.63a8,8,0,0,1,2.84-1.24c-.52-.83-.41-.61-1.15-.25a.21.21,0,0,1-.05-.33c-.16-.15.07-.56-.52-.62.31-.25,1.28-1.56.38-1.42l.08-.48C204.74,164.82,203.63,167.62,203.59,168.64Z"/><path class="cls-3" d="M220,159.86c.68-.07,1.67-.86,1-1.47-.86-.74-1,.51-1.55.86.36-.37,0-.78.37-1.2-.43,0-.59.7-1,.45a13.25,13.25,0,0,1-1.13.91c.36-.29.26-.8.54-1.17-.32,0-.48.25-.68.51l0-.61c-.22-.06-1.34.45-1.45.14a4.17,4.17,0,0,0,.67-.94.83.83,0,0,0-.61.29c.31-.63,1.5-.5,1.55-1.15-.58.4-1-.39-1.39,0a5.55,5.55,0,0,0,.26-.58c-.56.09-1.45,1.23-1.79,1.66-.18-1.24,1.56-3,2.21-4a1.07,1.07,0,0,0,0,.62c.07-.14,1.21-1.83.29-1.1-.7-1.17,1.28.13,1.1-1.32-.28,0-.49,0-.5.27h-.19a1.2,1.2,0,0,0,0-.38,12.55,12.55,0,0,1-2.66,1.68c.54.64-1.47,1.16-.77,1.62-.29.14-.64.24-.66.65l.24.07c-.68.15-2,2.75-1.57,2.86-.27.43-.67.23-1,.52s-.31,1-.85,1.2l0-.32-.14.3c-.34-.34,0-.57.23-.85-.4.43-1.05.51-1.14,1.18a8.22,8.22,0,0,1,1.57-.19c-.55.5-2.31,1.43-2.11,2.34s1.86.66,2.16-.15a3,3,0,0,1-.16.44c1.25.5,3.2-.35,4.31.32a1.8,1.8,0,0,0,.07-.7l.12.13a.7.7,0,0,1,.29-.3.56.56,0,0,0-.13.63.8.8,0,0,1,.43-.5c0,.24-.08.44-.13.66a2.62,2.62,0,0,0,.38-.09,1.76,1.76,0,0,1-.86.52c.33,0,1.74.56,1.42-.45.66.31.82.09,1.44.22-.31.34-3.38,1.51-2.68,2.16s2.23-1.55,2.93-1.43l-.24.16c1,0,1.77-2.94,1.2,0-.31,1.62-.3,2.27.94.41l.42.13V165a1,1,0,0,0-.36,1.73c0-.24,3.56-2.72,1.86-3.61,0,.66-1.23,1.24-1.1.55s1.2-.88,1.08-1.47c-.86.69-2,2.13-2.33.52.2.37.42.21.55-.18-.17,0-.33-.07-.49-.07.19,0,.37,0,.56,0-.47,0-.58-.25-.4-.55-.1.17.85-.36.81-.34.39-.24,1.44-.62,1-1.31a1.67,1.67,0,0,1-.5.45c-.12-.16-.16-.08-.3-.19.09.6-.78.78-1.06,1.18a1.65,1.65,0,0,0,.1-.44c-.17.09-.2,0-.37.11a1.44,1.44,0,0,0,.54-.47l-.16-.1c.2-.13.18-.3.31-.47-.14.06-.12-.05-.31.12.41-.71-.31-.35-.69-.48C219.77,160,219.86,159.91,220,159.86Z"/><path class="cls-3" d="M220.15,162.07a.33.33,0,0,0,.61.11A1,1,0,0,0,220.15,162.07Z"/><path class="cls-3" d="M215.64,163.16l-.12.21.13,0C215.82,163.28,215.63,163.29,215.64,163.16Z"/><path class="cls-3" d="M70.75,132.92c-.41.7.27.81.67.25a1,1,0,0,0-.16.92c1-1,.19-2.59-.86-1.24Z"/><path class="cls-3" d="M88.43,55.13c.21.18.37.27.57.12C87.85,53.7,87.86,55.4,88.43,55.13Z"/><path class="cls-3" d="M69.26,128.84c.14,1,.39-2-.64,0A4.56,4.56,0,0,0,69.26,128.84Z"/><path class="cls-3" d="M69.56,126.58a1.91,1.91,0,0,0,0-.41.41.41,0,0,0-.25.65Z"/><path class="cls-3" d="M70.64,131.7l-.24.17a1.57,1.57,0,0,0,.3.33C70.86,132,70.78,131.89,70.64,131.7Z"/><path class="cls-3" d="M71.91,130.79c.06-.11.1-.25.15-.36a.76.76,0,0,0-.85.73A1.58,1.58,0,0,1,71.91,130.79Z"/><path class="cls-3" d="M92,60.17a3,3,0,0,0,.16-1.29c-.42.29-.42.65-.72,1A1.66,1.66,0,0,0,92,60.17Z"/><path class="cls-3" d="M94.88,56.5c-.11,0-.45,0-.45.22C94.65,56.89,94.79,56.78,94.88,56.5Z"/><path class="cls-3" d="M93.42,60.27c.81.23,3.27-1.64,3.53-2.39-.55.43-.56-.46-.61-.81-.34,0-1.06.87-.93,1.12-.37-.13-.62.13-.67.49-.4-.4.12-.52-.3-.86-.25.34-.2.2-.43.24C93.85,58.58,93.16,59.71,93.42,60.27Z"/><path class="cls-3" d="M110.63,55.31a2.67,2.67,0,0,0,0-.49,1.14,1.14,0,0,0-.68.57A.47.47,0,0,0,110.63,55.31Z"/><path class="cls-3" d="M91.68,61.57a5.09,5.09,0,0,1,1.08,1.14c.73-.66-.74-2.87-1.32-2.3-.33.32.65.85.81,1-.18-.06-.39,0-.57-.08Z"/><path class="cls-3" d="M92.36,60.31l-.29.16a.79.79,0,0,0,1.13,0c-.4-.41.33-1.55-.09-2.22-.19.17-.26.09-.31.39C92.09,57.93,92.44,60.21,92.36,60.31Z"/><path class="cls-3" d="M186.29,106.19c.24.18.58.93.9,1s.83-.15.32-.5C188.63,106,185.18,105.6,186.29,106.19Z"/><path class="cls-3" d="M185.52,106.82c-.54-.32-1.41-.29-1.88-.6C183.05,107.52,185.83,109.26,185.52,106.82Z"/><path class="cls-3" d="M197.6,85.21c-.72.24-.29,1.31-.18,1.81C197.92,86.86,198,85.57,197.6,85.21Z"/><path class="cls-3" d="M179.42,75.15a2.71,2.71,0,0,0-.88.22c.25.23.2.83.56.4.14.22.79.6,1,.27S179.52,75.39,179.42,75.15Z"/><path class="cls-3" d="M73,136.54c.28-.27.61-.47.71-.84a3,3,0,0,0-1.78,1.35C72.39,137,72.54,136.56,73,136.54Z"/><path class="cls-3" d="M157.7,78.6c.62,0,.53.72.92,1.05a3.84,3.84,0,0,0,.35-.54c-.25,1.73,2.19.35,2.61,0,0,.13.16.23.19.35.29-.32.92-.47.83-1-1.18.92-.22-1.21-.15-1.5-.49.19-.59.49-.8.93-.1-.42.26-5.33-1.24-3.34-.11-.53.26-1.42.22-2.06a1.66,1.66,0,0,0-1.4,2.16c-.42-.07-.18-.65-.56-.71s-.15.54-.52.52c.25.27.2.44,0,.7a5,5,0,0,0-.6.38c-.88.24-1.41,0-2.1.7-.46.47.48,1.36.73.22.76.34-.06.93.73,1.34.05-.16.21-.29.25-.45C157.48,77.72,157.29,78.15,157.7,78.6Z"/><path class="cls-3" d="M155.11,69.86c-.29,0-.52-.1-.74.11-.17-.55.21-.44-.05-.81.09.13-.39-.17-.37-.16-1-.84-.22-2-.76-3A1.07,1.07,0,0,0,153,67c-.65-1.22-1.7-2.19-1.35-3.67.15-.64.66-1,.93-1.59a12.45,12.45,0,0,0,.67-2.77c.49-2.13,3-6.12.23-7.7a.39.39,0,0,1-.45.22c-.27-.31-.55-.6-.84-.89.13.06-.24-.25-.22-.25a7.54,7.54,0,0,0-.52.78c-.23.36-2.9,8-3.28,7.92.23.31.69.27.56.76-.66-.46-2.42,1.71-1.75-.05-1.31-1.57,1.69-3.36,1.38-4.83l-.38,0c-.44-.72.66-3.08-.41-3.48s-.42.72-.53,1,.16.53.1.77-.54-.3-.68-.23c-.64.33.76,1.32.08,1.66-.06-.16-.2-.23-.26-.37,0,.17-.11.34-.11.51a.55.55,0,0,1-.37-.65,5.39,5.39,0,0,1-.63.43.58.58,0,0,1,.22-.77c-.42-.23-.9.33-1.19.61-.34-1-1.43.28-2.14-.56.78-1.06,2.52,0,2.65-1.63.14-1.86-2.56-2.36-3.64-1.26.39.36,0,.59-.41.69v-.2a4.64,4.64,0,0,1-1.89-.12c.78-.74,2.89-1.51,3-2.77.09-2-2.51-.67-3.5-.39-1.52.43-7,.92-6.93,3.24.3,0,.36.12.59.2-.76.9-3.76,1.12-3.43,3,.26-.22,1.64.74,1.74.69a2.68,2.68,0,0,0-.83.49s1.38-.27,1,.56c1.69-.35,2.81.74,4.28.66-.29.66-1.44-.66-2.06,0a.77.77,0,0,1,.66.43c-1.59,0-3.54-.92-4.91.25-1.1.94-1.21,2.44,0,3.1,1.08.56,5.9-.22,6.27,1.2l.26-.18c0,1.26,2.47,2.14,2.71,3.66a13.51,13.51,0,0,0-2.91-.66c-.89-.26-1.68-.81-2.56-1.13-1.44-.52-3.75-1.21-5.07-.11a3.08,3.08,0,0,0-.33,4c1,1.34,3.18.81,4.14,2.27-1.62.06-.78,3.59-1.44,3.55.41.54,1.16,0,1.52.42.56-1.1,4.1.34,5,.28.57,0,5.7-2.23,6.1-1.81.21-.34,1.17-1.13,1.13-1.3.49,0,.49.33.68.71-1.69.7.64,1.53,1,2,0-.26.19-.32.41-.19.33.43-.95.49-.76,1s1.19-.09,1.56-.14c-.24.92,1.35.92,1.91,1.3v-.35c.87-.28.22.35.8.42,0,0,.83-.23.75-.22.78-.06,2-.79,2-1.72-.13-1.61-1.93-.46-2.63-.08.07-.56.93-.5.7-1.29-.35.88-.51-1.46.25-1.29a1.21,1.21,0,0,0,.45,1.07c.45.21.49-.46.6-.5s1.13-.88,1.16-1.14c0,.55.36.43.61.07a1.74,1.74,0,0,0-.29,1.25c.36-.13.42,0,.18.37.55,0,.74-1.18,1.28-1.4,0,1-1,1.21.24,1.75A5.72,5.72,0,0,0,155.11,69.86Z"/><path class="cls-3" d="M154.05,81c.41-.14.36-.67-.15-.53A.67.67,0,0,0,154.05,81Z"/><path class="cls-3" d="M176.86,60.16c.7-.46,5.55-5.57,5.91-5.34-.21-1.72-2-.82-3.07-1.45-.66-.39-1.1-2.48-2.08-1.24-.09-1.05-4.12,0-2.73.93-.74.15.05.67,0,1.16-.75.15-.48-.92-1.38-.73-.55.11-1.26,2-1.49,2.47a20.12,20.12,0,0,0-1.14,3.63c-.21.74-.51,1.33-.78,2-.11.27.58.13.46.44s-.83.13-1,.62a2.64,2.64,0,0,1,1.74.54.86.86,0,0,0,.16-.56c1.47.34,2.22-2.34,2.48-3.15-.19,0-1,0-1-.31a6.45,6.45,0,0,1,1.82-.1C175.48,59.39,176,60.88,176.86,60.16Z"/><path class="cls-3" d="M168.72,60.62c1-.61.4-1.83,1.17-2.41a1.33,1.33,0,0,0-1.14.84c-.36-.49.84-1.56-.14-1.76.63,0-.07-1.17-1.61-.58-.35-2.07,3.75-.7,2.92-3.12l.5-.32c.36,1.12,1.15-.6,1-1.16-1.65.75-4.46-2-5.2-1.27a.58.58,0,0,0,.62.22c-.14.52-1.41-.13-1.75.09-.74.47-.18,1.84-.21,2.5-.37-.39-.06-1.19-.79-1.44,0,1.25-.8.87.05,2.15.47.71,1.08-.8,1.28,1-.8.12-.6-.51-1.38.12-.49.39.06,1.79-1,1.72s-.22-2.55-1.83-2.66c-1.43-.11-2,2.26-1.78,3.3s.66,1.06,1.12,1.79.51,2.3,1.35,2.54A4.09,4.09,0,0,0,162,65c.18-.24,1.27.62,1.86-.19s-.3-1.84.55-2.65c0,1.28-.4,1.91,1.29,1.7.24,0,2.51-.89,1.92-1.38H168c.19-.23-.43-.49-.46-.64l.3-.21S168.68,60.62,168.72,60.62Z"/><path class="cls-3" d="M176.18,84.91a1.53,1.53,0,0,0,0-1c-.6.54-.54,1-1,1.52C175.64,85.49,176.35,85.52,176.18,84.91Z"/><path class="cls-3" d="M196.9,125a.92.92,0,0,0-.1-.74C196.64,124.47,196.68,124.93,196.9,125Z"/><path class="cls-3" d="M176.13,109c.54-.3.43-.72.87-1.08-.56-.33-2.48.47-2.52-.38-.44.17-3.11,2.27-1.85,3.07-.28-.19,1.58-.36,1.34-.26C174.42,110.16,175.65,108.87,176.13,109Z"/><path class="cls-3" d="M196.26,124.42l.13-.11-.06-.1Z"/><path class="cls-3" d="M196.57,124.49v-.22C196.39,124.48,196.55,124.44,196.57,124.49Z"/><path class="cls-3" d="M203.2,158.49c1.23,1.36,1.09-.33.43-1.09A5.43,5.43,0,0,0,201,156C198.31,155.79,202.33,158.19,203.2,158.49Z"/><path class="cls-3" d="M203.53,164.26a.62.62,0,0,0-.19-.28c.17-.19.4-.53.6-.55l0-.12C203.61,163.41,203,164,203.53,164.26Z"/><path class="cls-3" d="M202.26,166.47l.19-.14c-.56,0-3.2-.34-3.21-.27-.93-.25-.09-1.19-.32-1.61-1.81,1.28.51,2.23,1.6,2.63.61.23.21.79,1,.55S201.22,166.36,202.26,166.47Z"/><path class="cls-3" d="M181,110.66c-.25-1.88-3.09.67-2.38,2,0-.05.91.73.78.76C179.7,113.38,180.72,111,181,110.66Z"/><path class="cls-3" d="M180.79,104.43l-.21-.27c.28-.07.22-.17.4-.34a2,2,0,0,1-.41-.41c-.16,0-.24.29-.17.29-.25,0-.79.08-.74-.45-.39.33-1,.66-1.4.12,1.65-1.45.2-3.23-.88-4.45a17.62,17.62,0,0,0-1.87-2.2c-.44,0-.74,1.08-1.06.78a3.5,3.5,0,0,0-.16-1c.1-.26.25-.3.59-.21-.13-.34.12-1.29-.53-.93a.9.9,0,0,1,.34-.7c-2.43-1.38-3.18,7.5-4.91,7.58-.28.39-1.64,1.34-.76,1.83l.26-.28c-.16,0,.44-.07.38-.07,1.75-.2.39,2.13,1.9,2.27.6,0,1.39-1,1.85-1.29a6.43,6.43,0,0,0,1.39-1c.38-.44.06-.94.72-1.25,0,0,.55,0,.49,0,.61,0,.71.25.11.78l1,.24a.58.58,0,0,1,.06.54,3.17,3.17,0,0,0,.2.71,3.62,3.62,0,0,0,1.63.86C179.34,105.67,181.45,104.73,180.79,104.43Z"/><path class="cls-3" d="M163.12,239.22c-.47-.78-3.81-1.59-3.69-.16.09,1,3.26,1.95,3.54.7C164,240.51,164.43,239.24,163.12,239.22Z"/><path class="cls-3" d="M171.41,237.9c0-.46-.51-.81-.9-.46A1.89,1.89,0,0,0,171.41,237.9Z"/><path class="cls-3" d="M165.2,235.52c.68-.15,3.4-.47,3.28-1.34,0,.32-.95-.71-.69-.48-.82-.73-1.51-.33-2.44-.75,1.15-.87-2.84-1.75-3-1.53-.14-.27-.15-.87-.46-.31-.61-1-1.91-1.24-2.89-1.6-.37-.13-.82,0-1.17-.23-.5-.28-.61-.89-1.1-1.16a3.7,3.7,0,0,1-.5-.19c-2.87-.59-8.46-1.61-9.64,2.08-.52-.53-.88.43-1.46.16-.19.9.87,0,1,0l.06.4c1-.73,2.07-.76,3.17-1.21s2.23-1.74,3.28-.51c-.31.38-.73,0-1.08.4.25.28,3.52,1,3.74.51.48.34,1.19,1.3,1.84.93.55.47,1.29,0,1.85.41s.55,1.14,1.09,1.56,2.13.56,2.19,1.39-1.66.45-.51,1.48C162.49,236.21,164.29,235.11,165.2,235.52Z"/><path class="cls-3" d="M168.78,229.2l-.05.24c.47,0,1.65-.5,1.17-1.15C169.71,228,169,229.17,168.78,229.2Z"/><path class="cls-3" d="M167.22,227.66a.57.57,0,0,0,.54.37c-.35-.64-.54-1.3-.89-1.94A2.86,2.86,0,0,0,167.22,227.66Z"/><path class="cls-3" d="M171.06,229.27c.22.36.67.13,1,.38C172.12,229.23,171.39,229,171.06,229.27Z"/><path class="cls-3" d="M170.43,231.93a.92.92,0,0,0-.64,1c.71-.08,1.76-.08,1.51-1.15C171,232.08,170.79,232.31,170.43,231.93Z"/><path class="cls-3" d="M161.67,226.13c.58,0,.74-1.1.32-1.23C161.19,224.64,161.54,225.88,161.67,226.13Z"/><path class="cls-3" d="M178.94,180.84c-.47-.54-4.23,1.12-3.37,1.15l-.19.17c1.19-.68,3.31-.07,4.26-1.1-.37.14-.69-.06-1,.2A3.39,3.39,0,0,1,178.94,180.84Z"/><path class="cls-3" d="M182.51,179.94c-.73.54.34.2.57.21C182.92,179.91,182.78,179.94,182.51,179.94Z"/><path class="cls-3" d="M78.79,151.25l-.13-.19c-.74.35-.38,1.08-.13,1.63C79,152.34,78,151.45,78.79,151.25Z"/><path class="cls-3" d="M258.21,417.09c0-.74-1.34-1.34-2-1.23.69.58,1.75,2.29,2.57,1.42C258.6,417.25,258.41,417.13,258.21,417.09Z"/><path class="cls-3" d="M89.69,221.67a2.64,2.64,0,0,1,.19.64c.38-.2.18-.57-.08-.83Z"/><path class="cls-3" d="M118.69,222.31c-.09.11-.24,0-.2.32C118.66,222.57,118.63,222.47,118.69,222.31Z"/><path class="cls-3" d="M118.34,223.75v-.34l-.19.72C118.2,224,118.28,223.88,118.34,223.75Z"/><path class="cls-3" d="M118.4,223.16a.54.54,0,0,0,.17-.3h-.12Z"/><path class="cls-3" d="M90.26,223.56c.2-.11.4-.11,0-.29Z"/><path class="cls-3" d="M219.74,275.21c-.06.24.07,1,.4,1.05C220.69,276.34,220,275.33,219.74,275.21Z"/><path class="cls-3" d="M219.38,280.79c-.76,0-1,.61-1.23,1.24C218.44,281.89,219.51,281,219.38,280.79Z"/><path class="cls-3" d="M222.26,280.93c.5-.7-.59-.23-.82-.09A1.29,1.29,0,0,0,222.26,280.93Z"/><path class="cls-3" d="M218.71,281.83l-.16.22C219.07,282.2,219.34,281.4,218.71,281.83Z"/><path class="cls-3" d="M221,280.44c.47.23.8-.52-.12-.4S220.19,280.57,221,280.44Z"/><path class="cls-3" d="M220.29,279.77c.21-.32.46-.4.64-.72-.43-.05-1.14.47-.88,1Z"/><path class="cls-3" d="M254.38,297.29c-.13-2.24-.6-4.55-2.93-5.18a9.56,9.56,0,0,1-4-2c-1.09-.88-6.32-5.54-7.5-2.93a5.76,5.76,0,0,0-.85-.7l-.1.19-.25-.22c0,.18-.12.32-.1.51-.33-.16-.38-.43-.68-.59.06.18-2.73-.49-3.11-.29.17-.09-.07.26,0,.25-.22.22-1.14.06-1.07,1a2.67,2.67,0,0,1-.35-.72,2.82,2.82,0,0,0-.56,1.8,3,3,0,0,1,.35-2.5c-.19-.09-.24-.18-.51-.15,1.26-1.44-1.14-1.57-1.89-1.28-.22-.43-1.28-1.71-1.69-1.06-.12-.42-1.91-1.28-2.12-.9-1.87-2.06-5.23,4.74-5.34,5.89-.14-.75.68-2.11.3-2.75-.64-1.05-1.81.11-2.5-.77,1.29.31,5.3-1.32,4.77-3.07-.61-2-5.1-.27-4.4.39a.55.55,0,0,0-.62.51c-.15-1.25-1.74,1-2,1.27a3.56,3.56,0,0,0,.65-1.74c-1,0-.72,1.39-1.47,1.68,1.31-2.51,2.76-3.88,4.6-6-.07-.06,0-2.44-1-1.26-1.23-1.78-1.25-4.17-2.36-5.92-.19.44-.22.72-.77,1a.92.92,0,0,0,0-1.51,15.16,15.16,0,0,1-1.75-1.43,3.21,3.21,0,0,0-3.49-.54c1.37-1.68-6.43-2-6.26-.65-.33-.83-3.19-3.92-3.33-1.56-.37-1.4-.38-2.65-1.5-3.68-1.55-1.41-3.54-1-5.44-1.27,4.11-1.26-1.61-3.93-1.68-2.81-2.49-2.71,1.4-.54,1.23-2.1-1.36.46-2.87,0-4.27.38-1.6.39-2.39,1-4.07.63a9.92,9.92,0,0,0-2.87-.32c-.71.05-2.33.53-2.55-.59.91-.62-.17-1-.62-1.22-1.05-.52-1.58,0-2.5-1-.11-.12-.68-2.53-1.37-.61-.39,1.1.58.66,1.15.93.22.11-.3.77-1,.3-.28,1-1.75.54-2.35,1.22-.91,1.05.57,2.58-.33,3.59-1.54,1.72-1.06-3.93-.69-4.71.19-.42,1.27-1.05,1.31-1.36.24-1.6-2-.62-2.66-.2a17.56,17.56,0,0,1-3.07,1.74,6.77,6.77,0,0,0-1,.71c.23-.14-.42,1.32-.47.49a.56.56,0,0,1,.31-.47c-1.76,0-2.92.27-3.37,2.48,1.09.23-2,2.66-2.63,2.59.07.48.88,1.15.33,1.6-.36.29-.9-.05-.49-.51-.92-.16-1.19-1.31-1.8-1.86a4.58,4.58,0,0,0-3.48-1.12c-1.2.18-2.13,1.33-3.33,1.46-.66.08-1.87-.76-2.27-.53,1.16.6-1.29.31-.33-.05-1.59-.73-2-2.77-3.63-3.3a11.67,11.67,0,0,0,.34-2.74.86.86,0,0,1-.41.58c0-.27.22-2.39.72-2.33a2.35,2.35,0,0,0-.1,1c.71-.21.27-3.22.54-2.92.13-1.31,1.79-3.85-.16-4.47a3.6,3.6,0,0,0,.16.45c-.75,0-1.32-.34-2.05-.31.77-.47.74-.1,1.56-.31-.7-.65-1.2-.34-1.92-.69l-.1.27c-.47-.45-2.48-.75-3.16-1,0,.31-.1.15.08.4-.49.22-5.38.29-5.43.49-.25-.25-.82-.2-.72-.72,0-.27.49-.68.74-.36a6,6,0,0,0,.82-3.7c0-.17.21-1.73-.3-1.12-.2-.33.66-1.08,1-1.18l-.24.78a2.66,2.66,0,0,1,.67.71c.64-.76.51-1.8,1.08-2.55-1.12.85-.07-.58,0-.86a.63.63,0,0,1-.65-.24c.18-.2,4.1-5.86,1.53-4.85.17.52-1.53.11-2,.13.05.34-4.79,1.44-4.85,1.37l.33.09c-1.68,1.88-.87,3.86-3.36,5.19l.08.07a4.55,4.55,0,0,1,.43-.28,4.64,4.64,0,0,1-.91,1.78c-.3-.37-1.27-.7-.22-1-1.21-.54-5.18.6-6.32,1.26-.19-1.09-1.34-1.23-2.08-1.82a10.07,10.07,0,0,1-1.89-2.54c-.81-1.19-2.92-3.25-2.24-4.87a2,2,0,0,1,.56,1.41c.55-.55-.2-1.64-.31-2.21a9.17,9.17,0,0,1,.24-3.25c.1-.58.91-3.46.18-3.78a.91.91,0,0,0,.27-1,1,1,0,0,1,.38,0,3.46,3.46,0,0,1-.14.62c.58,0,.93-1.86,1.08-2.37-.53.28-.21.92-.81,1.15.68-2,.06-4.55,1.59-6-.7-.45.93-.83.73-1.39a.48.48,0,0,0,.7,0l-.24-.22a.83.83,0,0,1,1.11,0c-.14.09-.24.26-.38.33,1.72,0,3.82-2.26,3.73-2,.93.14,1.54-.82,2.41-.93,1.13-.13,2.12.71,3.25.48-.22-.46.23-.79.65-.55l-.17.25c.27.06,1.32.46,1.38.75l-.43.52c.81.19,3.59.55,2.69-.66.39-.15,1.83,1,1.74,1.42.65-1.06-1.21-.93,0-2.28-.78-.17-.4-.33-1.22,0-.21-1.32,2.3-1.29,3-1.49,0,0,5.1-.39,5.42,0-.31.1-.6,0-.86.16a6.33,6.33,0,0,1,1.82.57c-.26-.18-.26-.34,0-.47a5.39,5.39,0,0,0,.54.53l-.07.14c-.12,0-.25-.07-.36-.11a2.07,2.07,0,0,1,.87.89l-.1,0-.07-.14c-.24.88,2.67-.7,2.6-.71.93.14,1.13,2,2,2-.07.79.67,1.39.59,2.23s-1,1.21-.31,2a1.66,1.66,0,0,0,.52-.63c-.21.35-.19,2.35.43,2.34,0,.13.09.26.11.4a2.77,2.77,0,0,0,.14-.38c.26.13.29.08.59,0-1.26.82.48,3.27,1.22,3.86l-.26.11c1.74.12,2.33.08,2.68-1.93.4-2.35-.26-4.7-.76-7-.42-1.91-1.11-4-.4-5.89.11-.31,1.72-2.55,1.43-2.77A21.42,21.42,0,0,1,160,203a22.62,22.62,0,0,0,3.22-2.56,10.43,10.43,0,0,1,2.46-1.66c.61-.28,1.85-.34,2.22-1l-.25-.22c-.33.46-.61.12-.3-.09.06-.85.15-.65.17-1.23.12,1.31,2.33-.18,1.67-1.1a.92.92,0,0,0-.37.75c-.93-.4.3-1.49.05-2.6l.23.11c.7-1-1.53-1.28-1.93-2.06a7.51,7.51,0,0,0,1.48.52.84.84,0,0,0-.46-.58,3.4,3.4,0,0,0,.46.09c.45-.65-.54-.8-.62-1.48a.6.6,0,0,0,.78.45c.74-.65-.69-1,0-1.56.32-.3.24-.24.63.1l.15-.18c.06,0,.12.13.25.17-.2.42,0,.76.56.61-.56.16-1,1.64-.84,2.27.19-.39.39-.78.61-1.17,0,.11.06.21.08.33.54-1.35,1.55-2.46,1.44-4-.08-1.1-1.07-2.09.43-2.67-1.54,1.66.74,1.55.11,2.63a1.55,1.55,0,0,0,.33-.24l0,.12c1.29-1.24,2.63-2.91,1.84-4.58a15,15,0,0,1,2.78-1.76c1.27-.4,2.6.19,3.85-.28a2,2,0,0,1-.11-1.3c.84.76.47,2,1.49.08.78,1,1.94.46,1.56-.91a6.06,6.06,0,0,0-.74.88c-1.45-.79-.1-1.82-.28-2.49l-.34-.07c.39-1.52,2.12-2.2,2.49-3.49,0,.82.63,0,.78-.34-.11.69.45.49.57,0l.12.21c.5-.27.89-1.13,1.24-1.57-.64,1.16,3.57,0,3.9-.23.17.48.68.19.84-.16-.25-.26-.49-.31-.61.05-.48-.3-.2-.85-1-1.3,1.52.48,2.08.38,3.17-.62-1,1.3,2.44-.29,3-1l0,.25.29-.16c0,.62-1,.91-1.35,1.37a12.45,12.45,0,0,0,3.11,0c-.42.28-1.78.17-1.52.86-2.4-1.24-4.75,1-4.59,3.49.31-.18,1,.62,1.44.58.67-.06,1.14-.71,1.59-1.12,1.11-1,1.23-1.3,2.68-1.49l0-.21a13.49,13.49,0,0,0,5.54-1.58c-.24-.4-.7-.13-1.05-.45,1.18,0-.3-.8-.81-.81.1-.23,0-.28.05-.54-1.05.74-2.95.4-4.13-.41a.56.56,0,0,0,.6-.48c-2.4.14-1-3-2.57-2.84.29-.46,1.93-1.47,1.17-2.08-.47-.38-1.57.71-1.74,0-.57-.07-1.12-.78-2.16-.58,1.19-.69,2.56.23,3.79-.26.25-.1,2-1.27,1.37-1.59l.27-.11a.89.89,0,0,0-1-.43,1.79,1.79,0,0,1,0-.24l.66.13c0-2.51-6.05-.34-7.19.16-2.82,1.28-5.49,6.46-9,5.66,2.09-.51,3.5-2.31,4.88-3.82a15.47,15.47,0,0,1,2.59-2.46c.88-.6,1.94-.56,2.78-1.07,2.1-1.28,1.77-3.54,4.85-3.38,2.26.12,5.53.16,7.64.95l-.1.24c1.25.67,6.32-.4,6.15-2.35.38.11.83-.35.47-.59.44-.44.86,0,1.1-.63.21.54.81.41,1.14.06,1.12,1.57,4-1.7,4.56-2.43-.35-.26-.62.12-.93-.29a1.83,1.83,0,0,0,.93,0c-.31-.59-1.22-.19-1.5-.94.56.56,1.37-.06,1.47-.73l-.65-.21a8,8,0,0,1,.89-.64c.14-.2-.67-.51-.64-.72a.33.33,0,0,1,.57,0c-.15-.49-.8-.56-1.25-.54.13-.16,0-.2.22-.33-.51-.81-1.23.48-1.56.73-.06-.36-.34-.49-.71-.4.36-.64,1.24-.6.91-1.53s-1.55-.55-2.1-.31c.26.2.55.07.84.25-.43.07-5.47,2.16-5.38,2.38-.38-1,1-.93-.73-1.7.13-.25.05-.34.09-.6,1.12,1.93,3,0,4.66-.25-.25-.55-1.55.06-2,.17,0-.51,4.28-1.38,4.83-1.46a2.69,2.69,0,0,0-1.46-.66c.25-.09.58-.26.63-.59-1-.46-2.72,1.4-1.95-1.06l-.6.41a2.41,2.41,0,0,1,.27-.41c-.56-.18-.93,1-1.54.89a3.32,3.32,0,0,1,.9-.81c-.33-.35-.55.18-.92,0,.24-.17.48-.32.53-.57-.74-.06-.94,1.13-1.53,1,0-.08.63-.77.52-.86-.69-.56-1.06,1.47-1.9.59.77.46,1.41-1.05,2-1.38a.92.92,0,0,1-.28-.72c-.19.26-.31.59-.64.62.17-.67-.25-1-.71-1.49l-.34-.06c.94-.76-1.87-.61-1.92-.62,1.77.42,1.08-1.6.11-1.87.64-.1,1.08.47,1.66.27,0-.27-.16-.41-.43-.45,1.05-1.16,2-.5.3-1.51,1.37-.61-.87-.83-1.05-1.11,1.08.24,1.93-.83.78-1.55-.25.51-.64-.09-.92.41,0-.46,1.18-.67.83-1.2s-1.43.21-1.78.37c.24-.29,1.86-1,1.57-1.58a5.59,5.59,0,0,0-1.78.41c.25-.33,0-.61.24-.95a.81.81,0,0,0,1.36-.78.47.47,0,0,1-.68.08,1.43,1.43,0,0,0,.51-.83c-.58-.18-1.19.45-1.68,0,.45-.94,1.54.33,1-1.33-.39.63-.5,0-.85-.24,1.11-.3.13-2,.08-2,.15-.16.15-.35.26-.54-.18,0-.37-.11-.54-.11a1.12,1.12,0,0,0,.5-.49c-.36-.18-.35-.5,0-.68-.25-.16-.19-.2-.53,0a2.59,2.59,0,0,0,.35-.31c-.5-.61-2,2.2-1.87,2.61a.58.58,0,0,0-.37-.39c-.46.15.16,1.78.16,1.79-.81-1.37-2.27,2.68-2.49,3.19.65-2.13-1.31-.66-1.86.12-.56-1.1-2.1,1.49-2.19,1.59.21-.35.77-2.12.22-2.31-.81-.28-1,1.78-1.67,2,.6-.54,1.66-3.92-.12-3.42.07.14.06.33.14.46-.51,0-.79-.65-1.05-1,.34.17.63.42,1,.27-.57-.07-.62-.74-1-1,1.77-2.26.36-2.4-1.48-3.38,1.56.48,1.54.53,2.41-.44,0,.19.1.38.1.57.34-.74-.17-1.88.8-2.25a3.26,3.26,0,0,0,.38-1.47c-.43-.07-.49.8-1,1.08-.33-.32-1.7-2.68-2.64-1.62v-.35c-.1.13-.27.22-.38.35.12-.46-.25-.67-.54-1,.32.09.53-.07.57-.41.11.12.29.17.38.29.1-.33-.08-.54-.31-.8-.2.31-.47.32-.7,0l.35-.09c-.13-.4-.57-1.15-1-.73-.12-.85,0-1.65-.82-2.19s-1.61.26-2.23-.23c0,.15,0,.33,0,.48-.47-1.28-1.84-.29-2.61-.26.37,0,.69-.23.7-.63-1.4.19-2.4-1.32-3.83-.82-1.19.41-1.05,1.22-1.09,2.29a4.43,4.43,0,0,1-.43,2.26c-.57,1-1.82,1.56,0,1.91-.5.18-.85,1.26,0,1.14-1.06.15-.42.45-.47.91,0-.07-.2.7-.25.56.22.63.42.62.38,1.31,0,.47-1.15.23-.49,1-1.23-.49-1,.36-1.74,1.13s-1.95,1-1.65,2.46c.23,1.09,1.43,1.92,1.77,3,.54,1.69-.05,3.49-.44,5.13.26-.19.22-.53.56-.73.07.25.56,1.82-.31,1.34-1.88,2.3-5.37,2.92-7.89,4.18.31.44.16,2.11.7,2.24-.74.35-.44,8-1.44,7.51-.09.82-.2,2.58.85,2.88-.92-.1-2.15-1.38-1.55-2.53-.78.22-.83,1.25-1.56,1.54-.22-.12-.44-.26-.65-.4a5,5,0,0,0-1.35.66c1.37-1.21.44-2.54-.28-3.77a5,5,0,0,1-.93-3.78c0-.33,1.32-6.18,1.43-6.25-.42-1.27-4-.21-5-.66s-2.51-4.26-4.12-3.14c.17-2.16-2.32-3.22-3.87-4.07a4.68,4.68,0,0,0-2.94-.93c-1.28.15-2.58,1.45-3.89.64,2.58.9,2.49-2.86,2.42-4.4,0-.76.13-2.6-1-2.65-.84,0-.68.67-1.12,1-.75.6-1.68,1-2.43,1.68.06-.9,1.75-1,2.11-1.85.23-.51.29-2.26-.59-2.21a16,16,0,0,0,2.45-6.26c.52.62,3.3-2.25,2.81-2.73.52-.19.77-1,1.31-.84a3.85,3.85,0,0,0,.19-.47c-.19-.1-.33-.32-.54-.4.12-.14.16-.28.26-.4a1.12,1.12,0,0,1,.92.62c.28-.21.13-.49-.24-.62.53-.2,1-.76,1.54-.38,0-.29.09-.27-.06-.52.29,0,.38.23.35.55.7-.57-.08-.78.11-1.36a2.26,2.26,0,0,0,1,.35c-.19-.59-.88-.41-.38-1.12,0,.65,1,.91.76-.36-.16-.81-1.23-1.29-.78-2.26,1.17.76,2.32,3.3,3.82,1.7s-.95-3.35-2.53-2.46a1.53,1.53,0,0,1-.1-.41c2.06.8,0-2.9-.65-1.29-.4-.23-.47-.56-.62-1,.11.06.27,0,.38.1,0-.21.06-.44,0-.65.72,1.72,3.38,2.58,4.62,3.83a.6.6,0,0,1,.5-.72.39.39,0,0,1-.19-.63c1.39,2.1.85-1,1.23-1.58a3.06,3.06,0,0,1,.27,1.1c.18-.45.24-1,.77-1.11a.44.44,0,0,1-.08.76,4.61,4.61,0,0,0,.28.38c.31-.72.87.16,1.13.46.13-.42,1.24-.56,1.57-.79a13.92,13.92,0,0,0,2-2.16l.09.17c1.14-1.5,1.54-1.81-.3-2.82-1.1-.6-2.66-.77-2.33-2.46,0,0,.13-.38.13-.27,0-.43-2.09-1.07-2.42-.51a.54.54,0,0,1-.25-.6c1.77.76,3.38.5,4.57,2.22l-.38.21c-.08,2.68,3.89.64,4.61.09.47-.36,1.47-.86,1.59-1.51.16-.91-.89-1.39-.69-2.33a2.27,2.27,0,0,0,2.35.27s.21.25.25.32a1.54,1.54,0,0,0-.28,1l.3-.14c.21.31.58.33.92.57.32-.57-.66-.63-.06-1.11,0,1.22,1.09,1.73,1.38.29.26-1.25-.68-1.86-1.75-2,.2-.31.3-.49.59-.62-.05,0,.75,0,.64,0,.55.18.58.73.61,1.35a1.63,1.63,0,0,0,.62-.49c-.58,1-.71,2.3.72,2.41,1.11.09,2.31-1.57,3.13-2.19,1-.79,2.08-1.07,1.81-2.64-.07-.39-.59-.69-.59-1.08,0-.76.42-.85.57-1.53-.47.38-.88.06-.33-.43l-.37,0c.47-.4.38-.83-.25-.88.48-.61,2.35.24,3.33-.5-.36-.36.35-1.36-1.05-1.18.46-.26,1.62-.34,1.6-1.09,0-.94-1.08-.52-1.63-.8,1.14-.13-.61-1.18-.65-1.43.41,0,.51.45.87.18-.1-.08-.15-.22-.25-.29.22-.14-4.12-2.34-4.73-2.27.14.23.81,1.08-.11.81.35.45-.55.71,0,1.26-1.25-.2-.21,2.34,0,2.2-.72.41-1.26-.07-1,.9-.06-.24-.79.35-.69.23-.07-.17-.25-.29-.32-.46-1.31.61-1.9,2.5-2.56,3.68a9.32,9.32,0,0,1-1,1.77c.3-.3-1.61,1.3-1.24.42a6,6,0,0,0-.07.84c-2.5.44.32-7.71.2-8.42-.29-1.86-1.33-2.29-2.19-.54-.08.15-2,3.53-2.3,3-.41-.75.55-1.65.65-2.35.15-1.08-.4-1.91-.38-3a.48.48,0,0,1,.48.61,13.19,13.19,0,0,0,1.3-1c-.35-.32-.85.23-1.35-.36a.33.33,0,0,0,.13-.33c-.3-.12-.82.38-1.27.29.15,0-1-1.21-1-.85,0,0,2.89-2.91,1-2a2.14,2.14,0,0,1,1.1-1,.71.71,0,0,0,.08.89c-.1-.09.76,0,.65.06.54-.27-.2-4.37-.13-5,.13-1.25.9-4.27-.83-4.81.39-.67-.71-1-1.15-.94,0,0-1.48,1.21-1.46,1.18-.28.5,1.13,2-.59,2.42,0,0,0-1,0-1-1-1.3-4.49,4.4-2,3.56,0,.87-1.21.77-1.66,1.26A2.66,2.66,0,0,0,163,73c.12.43,1.49,2.62,1.92,1.53-.49,1.17.59.59,1,1.14.68.86-.33,1.21-.13,1.66a.61.61,0,0,1,.4-.62c-.7-.34-1.92,1-2,1.51-.06.25-.86.23-.18.68.29.2,1,.13.81-.42,1.53-.46-.24,1.78-.63,2.28s-2.1,2.62-2.93,1.39a.63.63,0,0,1-.49.43c.1-.25,0-.15,0-.37-1.09.56-1.23,3.15-1.46,4.17a7.78,7.78,0,0,0,1.44-.64c-.75,1.78-2.36.74-3.36,1.55,0,0-.24,1.27-.31,1.44.11-.66-.6-1.91-.08-2.48.29,0,.38.21.29.51.92-.76.94,1.18,1.75-.83-.29.15-.34.1-.62.06a1.43,1.43,0,0,0,.58-.68c-.38-.12-.78.36-1.2.43,0-.47.61-.42.5-1a1.32,1.32,0,0,0-.6.19,1.68,1.68,0,0,1,.4-1.38c0,.12.08.24.09.37.28-.57,2.28-1.87,2.14-2.56-.24-1.15-1.42.86-2,.49,1.17-.58.29-.67-.09-1.22.07.11-.16-1.86-.56-.59.45-1.29-.78-.75-1.13,0,0,0-.52-.79-.61-.67s0,1.52-.25,1.48l-.22-.34c-.92.27.89,2.61.87,3.15,0-.54-1.72-2.65-1.67-2.77-.14.32.53,1.48.33,1.66.14-.12-1.54,0-1.48,0-1.3-.33-1.51-.88-2.95-.72-.55.06-2.69-.29-2.82-.14a11.77,11.77,0,0,0-.92-1.92c.09.23-.55-.34-.36-.26a7.3,7.3,0,0,0-2.37-.65c1-1.53-.07-4.37-1.68-4.72-1.13-.25-4.19-.15-4.56,1.48.1.28.31.3.64.07,0,.34-.16,1.38.63,1.16.26-.07,0-.75.38-1a1.26,1.26,0,0,0,.62.31c.25-.2.48-.41.72-.63a.71.71,0,0,0,.32.79c0-1,1.9-1,2.52-1-.3.17-.29.82-.54,1s-.75,0-1,.22c-.56.51-.55.48-.6,1.39.1-1.35-1.11-.6-1.64-.32v-.3c-2.24.79-2.63,1.61-2.93,4l.39.32a11.71,11.71,0,0,1-.44,1.64l-.11-.18-.33.19c-.2-.07.18-.7.11-.82-.32-.52-.75.86-.81,1-.4,1.05.1,2.12.08,3.19-.09-1.44-.85-2.76-.83-4.22,0-1.13.63-2.18.59-3.32-.23.09-.37,1.28-.73,1.08-.62-.34.3-.77.13-1.18.09.23-.5-1-.37-.46a8.68,8.68,0,0,1-.4-1.85c-1.22.21-3.29.55-4.11,1.21.16-.45-.55-.84-.59-.31A7.21,7.21,0,0,1,124.05,75c.3-.16,1.69-.33,1.16-1.14.39,0,1.08.49,1.09-.08,1.31,0,2.13.37,2.09-1.32s-1.63-2.25-2.88-2.9c-.05.52.82.84.33,1.47a1.05,1.05,0,0,1-.3-.82,1.48,1.48,0,0,1-1.16-.7c-.92,1.2-6.08-6.38-6.43-6.54-1.88-.9-2.14.65-3.7,1.2-.46.16-1,.59-1.29-.05-.41-.91.91-1.14,1.2-1.75a9,9,0,0,1,.27-2.26c-.63,0-.83,1.28-1.75.92.22.41.7.86.09,1.14,0-.69-.8-.33-1.08,0,.3.09.29.3.13.58-.36-.24-.61-.16-.76.24l.7.46-.7.38c-1.22-2.7-.58-5.25-.48-8.21-1.39.56-.72,1.32-.89,2.52a1,1,0,0,1-.64-.39,1.57,1.57,0,0,0-.15.61.45.45,0,0,0-.74.44c-.5,0-1.47,1.35-1.91.93s.48-.62.48-1.12c-1.53-.27-4.38,1.17-5.18,2.45-.22-.58.73-.84.32-1.3l-.67.44c-.34-.75-4.58,1.46-4.07,2.1-.53-.35-1.51.16-.64.57-1.77-.57.91-2.21,1.55-2.51l.07.2c2.42-1.06,5.65-1.08,7.81-2.57-.18.12.36-.54.28-.31.45-1.29-5.93.16-6.6.24.14,1-2.88,1.22-3.5,1.44-2.16.76-2,2.2-2.57,4.13-.51-.19-1.1.59-1.46.89,1-1.54-.32-2.9-1.39-3.93A9,9,0,0,1,89.24,59c-.34-.5-.21-1.2-.69-1.64l-.29.19a17.58,17.58,0,0,1-.68-2,9.45,9.45,0,0,0-3-2.54c-.49-.34-.89-.44-1.25-.94s-.22-1.21-.65-1.65c-1-1-2.58.18-3.58-.8.8-.28-.55-.43-.68-.47.1-.09.12-.21.25-.29-.32-.26-2-1.59-2.39-1.11.13-.47-.43-.65-.59-.11-.37-.22.12-1.19-.84-.8.42-.58-.76-1.18-1.18-1.18-.71,0-1.15,1-1.73,1.26.84-.58,2.69-2.08,1.15-3-1.13-.66-2.63,1-3.45,1.52.83-.68-.48-3.09.48-2.7a9.53,9.53,0,0,1-.74-1.86c0-.17.63-.22,0-.91-.43-.45-3-1-2.94.09-.9-.72,1-1.75.55-2.56A20.43,20.43,0,0,0,64.65,39a1.68,1.68,0,0,0-.25,1,1.13,1.13,0,0,1,0-1.28c-.46-.15-.47.57-.93.62.14-.39.39-1.33-.4-1,.19-1.2,4.47-.18,2.31-2,.08.06-.3-.67-.29-.63s.24-.33.35-.41c-2-.51-3.35,3-5.6,1.3a10.88,10.88,0,0,0-1.43.37c.08,0-.5-.63.27-.74-.87-1.13-3,1.78-1.77,1.69-.19.25-2.38,2.39-2.28,2.4-.38,0,.71-1.92.71-2.1-.62-.06-1.05.51-1.67.46s-.89-.77-1.54-.7c.18.37.7.34.94.73A9.34,9.34,0,0,0,48.93,40c-1.42.93-2.55,2.29-4,3.14-1.77,1-2.54.6-4.42.3-2.24-.36-1.91.19-3.29,1.49,0,0-1.48,1-1.37.81-1,1.94,1.5,3.76,1.53,5.65,0,1.34-1.93,3.72.28,4.22,0-.15,0-.33,0-.48.28.35.5,0,.89,0-.91.45.34,1.1.73,1.41-.51.48-1.69,1.15-.66,2.13-.11-.1,1.23-.06,1.21-.06a5.59,5.59,0,0,1,2,.57c-.85.29-.14,1.19-1.32,1.31.15-.36-1.85-1.16-2.07-1.48-.45-.65.21-2.28-.23-2.69.06.06-1.3,2.74-1.21,3.27.29-1,3.18.73.44,1.76,1.68-2.14-1.27,0-1.68.18,0-1.13-2.19-.86-2.73-1.39-1.23-1.21.4-1,.51-2.08s-.83-1.18-2-1.16c-.35,0-1.13,0-1.43.21-.12.1-.71,1.53-.2,1.29-.47.22-.88-.27-1.32-.29a5.8,5.8,0,0,0-1.66.29,9.8,9.8,0,0,0-1.71.36c-.59.26-1.07.94-1.75,1,.11-.13.13-.29.23-.42-2.34.53,2.62,4.1,3.14,4.42-.64.51-1.84-.87-2.7-.55a1.49,1.49,0,0,1,0-.81c-1.18-.14-1.05,4.59-.28,5.16,1,.76,2.65,0,3.82.43.48.19,1.69,1.6,1.32-.06a3.6,3.6,0,0,0-.2,1.17c-.11-.18,5.38-2,5.53-2.14-.18.37-1,.68-.43,1-.41.76-1.33.11-1.74.56-.6.68.19.29.08.87-.26,1.48-.2,3.13-1.71,4.21-.91.64-1.32.37-2.34.35a4,4,0,0,0-2.27.67,25.69,25.69,0,0,0-2.89.93c-.85.5-.91,1.46-1.66,2-.21-2.64-1.84.24-1.28.19-1,.1-1-.52-2.15.19-.94.56-1.51,1.6-2.56,2,.17.12.15.85.15.85l-.3-.39c-.63.08-.86,1.73-.86,2.18s.34,2.16.72,1c.65,1.53,0,.55-.18,1.18.11-.31,1.72.62,2.05.54a15.28,15.28,0,0,0,2.22-1.6c-.37.56-1,.6-1.41,1.17,0,0-.32.71-.32.66a1.65,1.65,0,0,0,.23.79c-.17-.35-1.93-.39-2.26-1.22-.23.26-2.45,1.35-1.24,1.5-.85.75.46,2.31.59,3.19a.49.49,0,0,0-.61.3c1.69.78,3,.59,4.17-.86.56-.7,1.07-2.37,2.33-1.78-1.24-.2-1.68,1.29-1.94,2.19-.2.66-.16,1.41-.39,2.06s-1,1.29-1.11,2.07c-1.36-.52.72,2,.77,1,0,.7-1.67,1.79-2.22,1.81.84.88,2.92-.71,3.88-1.07-.1.63-.69.33-.28,1.07a.59.59,0,0,0,1.11-.06,25,25,0,0,1,.69,2.57c1.33-.63.25-3,2.42-2.67-1,.37-1.34,1.33-.24,1.72s2-1.08,3.08-1c-.78.3-4.46,3.34-2.66,4.08-1.44-.26-2.16,1.81-2.17,2.8-.33-.16-.39-.43-.74-.39,0,0-.81.68-.88.72.41.37-.18.84-.39.29-.33.2-2.23,2.39-1.91,1.25A31.89,31.89,0,0,0,13.92,108c-.37.23-.88.36-1.14.74s.17,1.14-.28,1.55l-.25-.39c-.23-.11-.2.55-.3.58-.52.17-.36-.73-.23-.9-1.37-1-7,2.9-6.58,3.73.25,0,.39-.88.7-.79a4.21,4.21,0,0,1,.16.61c.21.08.87-.78.87-.77s.24.69.15.64a.5.5,0,0,0,.6-.43c0,.21.14.2.2.31,0-.58,2.07-2.48,2.59-1.82.15.2-1.22.75-.35,1,.35.11.73-1.12,1-.61.23-.51.53,0,.27.33.79.06,1.21-1.45,1.91-1.3.52.11.59,1.29.29,1.26.73.07.6-1,.75-1.44.45.88,1.66-.42,1.91-.22a1.23,1.23,0,0,1,.47-.71c.05.26,0,.53,0,.82a1.33,1.33,0,0,0,.58-.47l-.17-.1c.91-.46-.25-.38-.51-.58.24,0,2.76-.8,2.08-1.07a2.92,2.92,0,0,1,1.19-.08c.36-.21.41-.71.74-1.14.57,1.42,3.4-1.37,2.35-1.3.35-.26,1.35-1.12,1.62-.77.38-.44,1.41-1.8,2-1,0-.25.91-.84,1.14-1,.62.54.95-.47,1.1,0,.5-.38.75.2.93-.76-.13,0-.26,0-.41.1.13-.41.56-.87.95-.54.09-.25-.05-.42-.33-.51.76-.36,2-.21,2.54-1s.09-2-.92-1.74a10.55,10.55,0,0,1,1.06-1.67c.6-.58,1.69,0,2.18-.43-.14,2,.58-.77.37-.42.39-.64,1.35.42,1.47-.71,0-.53-.75-1.36-1.24-.79.2-.66,1.23-.29,1.69-.42a8.57,8.57,0,0,0,2-1.17c1.6-1,3.48-1.76,4.68-3.27-.52.87-.12,1,.46,1.42.56-.61,1.8-.71,2.18-1.36-.12.94-1.23.66-1.68,1.26-.63.83-.24,1.31-.13,2.22-.61-.65-1.91.11-1.91-1.14-.91.41-1.66.36-2.4,1.11-.42.43-.53,1.18-.88,1.67-.66.91-2.51,1.8-1.58,3.14.11-.27.65-.69,1-.44.59.45-2.26,1.15-2.18,1.46-1.38-.6-.12,2,.38.81l.24.25c0-.56.62-.67.46-.11.5-.42,1-1.37,1.46-1.67-.53,1.66,1.6-.44,1.82.38.56-.29.28-1.44,1.18-1.25-.28.3-.59.47-.51.9.67-.38.69-1.46,1.32-1.72,0,.4-.34.65-.27,1l.54-.52c.36,1.13,1.75.21,2.28-.33-.66-.23.9-1.08.85-1.62-.44.17-.73-.21-1.18-.19.27-.64,1.28.23,1.08-.78-.85.67-1.16-1.35.17-.62.39-1.16.53-.91,1.88-.79-.86.59-.82.63-.62,1.65.53-.17.21-1.16,1-1.11-.16.31-.44.53-.29.89a1.25,1.25,0,0,0,.64-.64c.45.61,1.45-.76,2.22-.35-.45.42-1.37.3-1.36,1.11,0,.55,1.28-.1,1.08.77-.25-.27-1.21-.53-1.51-.22s1,.41,1.06.45a1,1,0,0,1-.67.13c0,.54.61.31.86.76-1.94.62,1.32.58,1.72.69L52.5,97c.49.31,0,.64.73.63.43,0-.32-.93.63-.6-.39.3-.45.85-.84,1.24.16.1.26.31.43.4l-.7.12c.5,1.1,2.41.23,3.3.47.6.17,2,2,2.57.86a2,2,0,0,1-.79.63c.42,1.08,2.85.75,3,1.12.21-.34.64-.77,1-.73-.54,1-.71,1.39-1.76,1.67a4.65,4.65,0,0,0,.68,1.16.91.91,0,0,1,.49,0c.14.25.05.36-.25.34.3,1.76,1.76-.11,2.05-.63-.12.36-1.36,4.12-.14,4-.45.81.75,1.28.95,1.85l.24-.19c.11.28.3.35.55.19-.13-.28,0-.14,0-.39l.37.23c.87-.36-.51-1-.44-.81a3,3,0,0,1-.11-2.12s.42.65.45.69c.05-.15.19-.27.25-.41.77,1.07-.3,1.24,1,1-.1.51-.82,3,.4,1.64,0,.43-.18,1,.35,1.23a9,9,0,0,0,.74-5.55c.59,1.42.73.09,1.29-.16-1.23,2.45-1.89,6.41,1.57,6.7-.14.36-1.33.63-.54,1-.72.32.26,1.16-.34,1.39a.61.61,0,0,1-.51-.54c-.06.87-.68,1.83-.41,2.2-.13-.17.54.4.35.29.22.12.75.36.8.6-1-.3.12,1.23.61,1.24-1.87.34.12,1.65.71,1.92-.62.56-3.41,1.27-2.49,2.76a16.54,16.54,0,0,0,1.62-1.79c.18.28.63.12,1,.09-.78.58.12.44.11.54,0-.22.07.32.06.24,0,.56-1.12,1.53-.53,2.28-.22,0-1.06-.09-1,.37s.8-.18,1,.09-1.7.61-.95,1.55a5.08,5.08,0,0,0,2.08-2.34c.17-.36.23-1.73.92-1.57-.38.94-1.28,2.18-1.37,3.2.7-.11,1-1.34,1.49-1.75.12.11.25.18.37.29-.06.25-2.11,1.74-1.16,1.79-.33.42-2.24.43-1.62,1.6a.4.4,0,0,0-.58-.25c-.28.71-.06,4.17.79,4.32,0-.41,1.63-1.57,2-1.69.19.71-.89.89-.67,1.61s1.28.31,1.59,1c-.62-.44-1.62-.71-2,.23s.49,1,1,1.55c-.1.06-1.4,1.84-1.5,1.67.19.33.85-.1,1.12,0l-.33.2c-.15,1.23,2.87-1.55,2.9-1.58.71,1.24-2.21.87.19,1.94-1.53-.24-.41,1-.91,1.46-.86-.84-.48-1.08-1.66-.37-.32.19-1.35,1.24-1.08,1.62-.25-.35,2.09-.27,2.2-.25-.28.18-1.76-.18-1.24.71-.37.05-1-.12-1.17.29.48-.07.8.27,1.27.19-.22.3-1.58-.2-1.43.44s1.48.35,1.81.27c-.14.4-.68.21-.95.3a1.29,1.29,0,0,0,1,.1c-.06.63-1.48-.12-1.42.25a1.41,1.41,0,0,0,.65.67c0-.46,1.21-.37,1.46-.13-.25.09-.2.2-.31.29.51-.08,2.2,1.17,2.06-.71.14.64-2.07,2-2,2.07.39.21,1.22-.3,1.58-.47-.42.74.47.84.88.46s0-1.4.73-1.51a19.19,19.19,0,0,0-.73,2.18,1.8,1.8,0,0,0,.86,0c-2.06,2.13,1,1.33.68,3-.27-.15-.31-.34-.6-.46-.33,1.31,1.18.91,1.7.29-.12.84-.69,4,.54,4.57-.72.75.12.28,0,.84a4.25,4.25,0,0,1-.8,1.47c-.13.21-.18-.49-.22-.58-.49.1-.72.79-1.19.7,0-1.18,1.08-.49.27-1.57a5.48,5.48,0,0,0-2.67-1.11c-1.71.55-1,4.34-.67,5.67l.26.11c-1,2.54-.3,1.58-.93,2.22s-.83,3.17-1.08,3.91c-1.17,3.51-3,6.15-3.18,9.91-.11,2.24-2.77,11.68,1.08,12.65,0-.33-.1,0,.84,1.11-2.86-.78.52,2.61-.67,2.55,0,1.69,1.28,3,1.72,4.59s.05,1.5,1.27,2.16c1.59.86,3.24,1.08,4.34,2.77,1,1.53.54,3.61,1.74,5-.66.42.89,3.9,1.15,4.42.88,1.75,3.78,3.63,2.93,5.87-.4-.2-.7.28-.06.3-.08,1.08-1.73-.54-2,.38s1.91,1.22,1.9,2.05c.34-.06.33.29.57.34s.85-.4,1.23-.31c-.54.88.52,1.24.87,1.82a5.42,5.42,0,0,1,.74,2.47c.38,2.33,1.77,2.87,3.2,4.56.67.79,2,3.24,2,.55,0-.54-1.18-3-1.73-1.82-.23-1.5-.9-2.88-1.12-4.39-.13-.87,0-2.29-1-2.78a.81.81,0,0,1-.15.58c-1.32-2-1.67-4.26-3-6.19A9,9,0,0,1,83.2,208c-.28-1.6.58-3.28,0-4.84.51,1.36,2.22,1,3,2.07.57.75.36,1.83.53,2.73.41,2.28,1.65,5.57,4,6.45,0,.83-.25,1.66.71,2.12-.17-.24.75.47.5.29.09.06,1.54,1.57,1.75,1.41a.4.4,0,0,1,0,.63c-.44-.71-1,.55-1,.89,0,.9.8.76,1.41,1.2,1.07.76,1.21,1.54,1.93,2.64,1,1.57,2.56,2.7,3.43,4.38,1,2,.87,3.08.44,5.07l.43.1c-.5-.45-.55,1.61-.49,1.82.38,1.26,1.68,1.68,2.84,1.93-1.06.94,2.68,2.26,3.19,2.48,2.38,1,4.49,3.31,7.12,3.66-.09,0,.84.14.71.06a11.5,11.5,0,0,0,4.71,1.89c1.52.09,2.85-1,4.35-.81V244A3,3,0,0,0,122,244c0-.35.67-.75.66-.18.42-.3.8,0,.24.16a3.16,3.16,0,0,1,1.84.91c-.13-.66-1-.64-1.25-1.08,2.39.33,3.31,3.1,5,4.49,2.11,1.78,5,1.38,7.35,2.65,0-.29.1-.13-.22-.37.68-.44.51.4,1,.43s.83-.34,1.09-.3c1.06.18.62-.05.87.62s3.81,4.4,3.32,4.85c.88.19-.28,3.11,1.72,2.78,1.29-.21-.74-1-.21-1.45,1-.76,3.72,4.71,4,4.59s-.35-.93-.33-1.1,1.35,1.25,1.44,1.22l.07-.42c1.23-.24,1.82.33,2.78.93s.14.74,1,.08c-.36.26.91,1.3,1.46,1.09,1.23-.47-.14-1.11.32-1.95.15-.26,1-.46,1.31-.66s.08-.82.45-1c.71-.42.94.1,1.51.34l1.64.65c-.74-.3-.11,2.42,0,2.7.58,1.68,1.81,2.4,1.05,4.33.76.36-.2,3.78.63,3.11-.21.76.22,1.21-.31,2s-1.61,1-2.25,1.66-.77,1.82-1.42,2.63c-.78,1-1.85.83-2.87,1.44,1.32,1.74-1.16,3.37-1.52,5a3.45,3.45,0,0,0,.25,2.24c.88,1.31,1.11.32,1.94-.34a4.27,4.27,0,0,0,.07.71,4.75,4.75,0,0,0,0-.56c2.08.92-2.31,3.45-2.71,4.35s.1,2.31.19,3.19c0,.43-.39.41-.25,1s1.29,1.09,1.74,1.4c3,2.1,4.08,5.49,5.83,8.61.94,1.66,2.13,3.21,3,4.92.14.27.79,2.31.83,2.34,0,.31.08.6.06.92.56-.19,3.35,4.16,4.2,2.73-.77,1.1,2.19,2.15,2.81,2.44a15.41,15.41,0,0,1,5.45,4c1.6,1.89,1.34,3.92,1.57,6.25a17,17,0,0,1,.29,4c-.09.76-.85,2-.3,2.68.27-.23.21-.16.46,0-1,.54-.3,2.83-.21,3.65a20.92,20.92,0,0,1-.39,5.69,47.3,47.3,0,0,0,0,12.41c.19,1.75.73,3.57.3,5.29s-.7,3.43-1,5.19a7.39,7.39,0,0,1-.94,2.45c-.32.56-.73.22-.78,1.12s.92,2.16,1.18,3a9,9,0,0,1,.37,3.5,16.08,16.08,0,0,0,0,4,1.67,1.67,0,0,0,1.61,1c.49,0,.39-.53.82-.57s.35.47.8.22c-.15.28-.6.91-.52,1.26.17.08.32,0,.44-.21.07.44-.05,1,.3,1.35l-.11.11c-.06-.06-.47-.87-.68-.59s.38.63.46.86c-.35,0-.5,1.77-.29,2-1.34.92.52,2.65.72,3.29.29.92-1.36,2.83-.56,3.35a9.78,9.78,0,0,0-.86,3.33,3.94,3.94,0,0,1,.15-1.74c-.41-.13-1.05.66-1.42.38.13.1.78-.89.08-1.21s-1.2.53-.89,1.24c-1.12,0-1.94,2.92-.55,1.92-.81-.3.68-1,.62-.94-.05.82,1.88.74,2.43,1.45-.33.06-.44.26-.16.52-.56.34-.43.75.13,1l-.07.13A1.4,1.4,0,0,0,178,399c-.73.89,2.07,1.09,2.45.81-.19.67-.32.28-.73.71a.59.59,0,0,0-1,.48c0-.14.58.59.49.54.23.13.4.29.72,0-.14.9-1.37,3.58.38,4,0-.54-.07-1.5.52-1.76l.11.19c-.5,0-.76,1.55.19,1.38-.75.66-1.58,1.31-1.11,2.38a10.23,10.23,0,0,0,1.24,1.11,1.38,1.38,0,0,0,.29.64c.09-.14.26-.25.35-.4.07.67-.49.58-.72,1.08.43.15.92,1.19,1.33.55a1.24,1.24,0,0,0,.08.83l-.48-.13c-.37.17.79,2,1.34,1.81-.25-.43-.06-.76-.22-1.17.46.18.36.63.68.95.19-1,.16-.49-.39-1.16a6.23,6.23,0,0,0,1.58.21c0-.4-1.1-.84-1.31-.75,1.65-.69,2.11,2.47,1.33,2.8a1.16,1.16,0,0,0-.45-1.48c-.39.47.17.83-.19,1.22-.32-.7-1.14-.45-1.71-.14.26.1.82,2.56,1.06,1.5.9.41-.25.82.15,1.08a.84.84,0,0,0,1.19-1.18c-.2.09-.27,0-.48,0a2.81,2.81,0,0,0,.39-.58,3.44,3.44,0,0,0,.85,0c.21.6,1.93-.31,2,.23,0-.14-3.86,1.24-2.54,2.12-.33.35.78,1.13,1.09,1s.58-1.26.23-1.47c1.08-.06,1.05-1.5,2.26-.78-1.14.27-.42,2-1.42,2.28,0,0,.39-1,.05-.92l-.25.41-.42,0c-.11.14,2.58,3.47,2.7-.38,0-1.46.17-1.43,1-2.42,1.2-1.43,1.48-1.34,3.3-1.12.09-.68-1.74-1.74-2.19-2.18,1.12-.35-.36-1.84-.43-2.44-.09-.85,1.3-2.36.46-3.12,1.67.73,2.06-1.94,1.27-1.54.22-1.05,1.34-1.77,1.91-2.61.45-.67.66-1.74,1.47-2.1a.71.71,0,0,0-.65-.37c1.69-.92-3.57-3.21-4-4.15-.57-1.28-.16-2.05,1-2.8.26-.18,3.27-1.19,2.35-1.49-.25.37.32-1.18.33-1-.07-1.46-.42-2.18.24-3.53.29-.6.67-.32.74-1.09,0-.21-.71,0-.65-.32.33-1.53.46-.33,1.42-.17.6.11,1.86-.26.76-1.37.81-.41-.45-1.24-1.33-.54,1,.16,0,.85-.62.52a2.78,2.78,0,0,1,.46-.35c-.45-.29-1,.05-1.42-.36s-.14-1.36-.27-1.88-1.13-2.17.29-2l-.14.26c2.85,1.28,4.07,1.57,5.57-1.26-1.75-.12.73-2.94-.43-2.76.09-.49-.57-1.65-.13-2.08.76,1.34,7.17,1.13,7.32-.52,1,1.79,2.77-2.62,2.75-2.59l.06.24c.54-.71,1.35-2.27.75-3.1-.86-1.18-1.42.25-1.67-1.8-.12-1,.62-.61-.1-1.71-.29-.44-1.23-.71-1.67-1.09a3.68,3.68,0,0,1-1.31-3.67c0,3.48,5.24,4.88,8,4.12,1.86-.51,2.78-2.23,3.66-3.81a12.26,12.26,0,0,0,1.12-3.37c.19-.73.84-1.86.73-2.61.54.58,2.24-2.52,1.15-3.35,0,0,1.58,1.21,1.57,1.18.27.92-2.8,4.26-3.05,4.11,2,1.18,4.39-5.07,4.92-6.21a22.58,22.58,0,0,0,1.84-3.68c.21-.87-1.15-4.57.08-4.64a.62.62,0,0,0-.41-.52c.79.05.64-.68,0-.8a.82.82,0,0,0,.73-.54c.36.36,1.93-1.38,2.11-1.54,1.19-1,2.43-2.15,4.15-2-.08-1.49,2.59-1,1-2.26.63-.08,1.59-.74,2.26-.55-.11.56-.91.38-1.23.72.39.31,1.62-.41,2.06-.59-.12-.29.14-.42.44-.36-.35.69.9.66,1.26.64a5.21,5.21,0,0,0,2.49-1.44c1.48-1.26,2.31-4,2.88-5.81,1.37-4.46,2.49-8.7,1.89-13.44-.4.61-.27-.81-.27-1,0-.86.7-1.62-.49-2l.24-.26a1,1,0,0,0,.77.56c0-.78.48-.33.78-.08-.18.33-.57.47-.63.84,1.55.18,3.65-4.89,4.61-5.94s2.35-2.06,2.88-3.53C253.84,299.53,253.57,297.84,254.38,297.29Z"/><path class="cls-3" d="M219.68,280.41a.42.42,0,0,0,.35.26.39.39,0,0,0-.31-.52Z"/><path class="cls-3" d="M180.29,252.75c.1.48.55.31.74.74C181.3,253,180.74,252.6,180.29,252.75Z"/><path class="cls-3" d="M176.73,252.08a.54.54,0,0,0,.72.38A.81.81,0,0,0,176.73,252.08Z"/><path class="cls-3" d="M189.86,255.89c.44.26,1-.2.61-.6l-.66.49c-.24-.31-.46-.29-.67.05A2.92,2.92,0,0,0,189.86,255.89Z"/><path class="cls-3" d="M178.83,252.56c-.33.5.46,1.05.79.52A.86.86,0,0,1,178.83,252.56Z"/><path class="cls-3" d="M154.33,287c-.15.1-1,.92-.48,1.08S154.29,287.2,154.33,287Z"/><path class="cls-3" d="M201.42,420.32c-2.4.56-5.45-1.73-6.47-3.64-.37,0-.74-.1-1.11-.17.08-.38.48-.79.77-.33-.33-1.58-1.41-2.58-2.93-1.73a4.06,4.06,0,0,0-.63.86c.2-.27-.93.18-.84.42a.77.77,0,0,0,.59-.06c0,.65-.77,1.57.19,1.95.2.08.71-.55,1-.45,1.71.51-.38.35-.41,1.49-.07,1.84,4.35,2,5.47,1.76-1.28,1.21-3.73-.09-5.11-.59.45,1.06-1.2-.17-1.51,0,.31.4,1,.39,1.18.83a.5.5,0,0,0-.38.22c-.22,0-.66-.31-.89-.31l-1.11.41c.36.41-.37.18-.69.32,0,.07,2.05.59,2.49.9-1.09.31.47,1.18.86,1.32a5.84,5.84,0,0,1-.66-.84c.29.13.65.14.75-.25a2,2,0,0,1-.54-.23c.37-.14,3.26-.41,3.24-.49,1.57,0,4,.57,5.44.12C200.44,421.74,202.13,420.38,201.42,420.32Z"/><path class="cls-3" d="M204,420.74a1.13,1.13,0,0,0-.86.2c.31.52,1.39-.09,1.67-.49A.65.65,0,0,0,204,420.74Z"/><path class="cls-3" d="M176.92,391.36c.18-.33.59-.17.84-.51C177.46,390.85,176.22,390.83,176.92,391.36Z"/><path class="cls-3" d="M177.23,404.56c.18-.29.28-.6.63-.69-.12-.46-.51-.41-.77-.72C176.75,403.39,177,404.33,177.23,404.56Z"/><path class="cls-3" d="M177,402.56a.63.63,0,0,0-.62-.61C176.36,402.41,176.91,403.4,177,402.56Z"/><path class="cls-3" d="M177.18,405.69c.15.22.27,1.11.65.49S177.62,405.28,177.18,405.69Z"/><path class="cls-3" d="M176.35,389.65c.1.25.57.42.67,0S176.49,389.24,176.35,389.65Z"/><path class="cls-3" d="M177.9,390.71l.32,0a1.69,1.69,0,0,0-.13-.49C178,390.4,178,390.56,177.9,390.71Z"/><path class="cls-3" d="M177.65,393.87c-.08-.41-.45-.37-.68-.62C176.56,393.64,177.24,394.09,177.65,393.87Z"/><path class="cls-3" d="M178.32,408.91c.17-.11.34-.25.51-.37C178.46,408.43,178.22,408.52,178.32,408.91Z"/><path class="cls-3" d="M177.12,389.35c0-.19.17-.25-.12-.37C176.87,389.15,177,389.2,177.12,389.35Z"/><path class="cls-3" d="M180.65,409.14c-.08-.14-1-1.2-1.14-.77-.24.59,1,1,1.3,1.24A4.34,4.34,0,0,0,180.65,409.14Z"/><path class="cls-3" d="M177.84,391.65a2.28,2.28,0,0,0-.81.19C177.31,392.15,177.9,392.17,177.84,391.65Z"/><path class="cls-3" d="M178.6,406.6a.63.63,0,0,0,.32-.58,1.23,1.23,0,0,0,.37.62c.29.1,0-3-.46-3.38-1.24-1.05-.4,1.25-.64,1.23l.24-.28c0,.43-.39.65-.8.65C177.9,405.37,178.1,406.3,178.6,406.6Z"/><path class="cls-3" d="M179.7,409.14c-.53.11.15,1.2.55,1.19C181.08,410.29,180.08,409.26,179.7,409.14Z"/><path class="cls-3" d="M177.89,393.65l.24-.29a2.26,2.26,0,0,0-.45,0Z"/><path class="cls-3" d="M176.43,393.87l.24,0C176.6,393.41,176.46,393.4,176.43,393.87Z"/><path class="cls-3" d="M177.05,390.49a.52.52,0,0,0-.67-.45l.06.62C176.64,390.57,176.86,390.57,177.05,390.49Z"/><path class="cls-3" d="M175.38,388c.21.27.49.22.78,0C175.93,387.75,175.58,387.68,175.38,388Z"/><path class="cls-3" d="M176.75,388.29c.19.3.45.21.68,0C177.17,388.13,176.89,388.05,176.75,388.29Z"/><path class="cls-3" d="M175,391.15c.17.13.93.35.64-.09S175,390.77,175,391.15Z"/><path class="cls-3" d="M175.78,390.66c.19.12.25.22.44,0l-.23-.23Z"/><path class="cls-3" d="M177.54,388.58c.18.18.32.22.32.5C178.44,388.91,178,388.07,177.54,388.58Z"/><path class="cls-3" d="M177.76,390.51a2.81,2.81,0,0,0,0-.58,1.72,1.72,0,0,0-.43.16A4.26,4.26,0,0,0,177.76,390.51Z"/><path class="cls-3" d="M177.48,392.82l-.37,0a1.82,1.82,0,0,0,.35.38C177.46,393.1,177.49,393,177.48,392.82Z"/><path class="cls-3" d="M178.06,402.54a2.42,2.42,0,0,1,.89,0c-.26-.87-1-1.57-1.06-2.4-1.07.87-.78.43,0,1.65l.1-.16.2.18A.49.49,0,0,0,178.06,402.54Z"/><path class="cls-3" d="M176.48,400.79c-.28.36.77,2.16,1.15,2.28C178.07,402.46,177.18,400.86,176.48,400.79Z"/><path class="cls-3" d="M179.3,409.29a.79.79,0,0,0-.13-.62.84.84,0,0,0,0,.77Z"/><path class="cls-3" d="M182.88,417.94l-.19.15a1.59,1.59,0,0,0,.47.14A2.51,2.51,0,0,1,182.88,417.94Z"/><path class="cls-3" d="M182,412.36c0-.32-.11-.47-.42-.43-.32.49.54,1.07.91,1.08A2,2,0,0,0,182,412.36Z"/><path class="cls-3" d="M187.6,419.17c-.17-.73-3.47-1.75-3.65-1s2.56,2.33,3.09,1.95c-.28-.4.54-.51,0-.89A.78.78,0,0,1,187.6,419.17Z"/><path class="cls-3" d="M182.47,413.67c0-.37-.23-.48-.52-.32A.53.53,0,0,0,182.47,413.67Z"/><path class="cls-3" d="M185.81,419.86c.19.15.28.26.46.06C186.11,419.65,186,419.72,185.81,419.86Z"/><path class="cls-3" d="M184.7,417.92l.41,0a34.28,34.28,0,0,0-3.44-2.07C180.78,417.12,184.11,417.67,184.7,417.92Z"/><path class="cls-3" d="M181,413.52a2.16,2.16,0,0,1-.08.75C181.25,414.11,181.5,413.43,181,413.52Z"/><path class="cls-3" d="M181.82,413.17a.73.73,0,0,0-.54-.48A.58.58,0,0,0,181.82,413.17Z"/><path class="cls-3" d="M181.86,413.75c.1.2.69,1.06.81.64S182.09,413.51,181.86,413.75Z"/><path class="cls-3" d="M182.25,414.78l-.34.13c.07,0,1.11.63,1.07.64C184.1,415.32,182.19,414.76,182.25,414.78Z"/><path class="cls-3" d="M197.61,424.9c.22.09.32.14.49-.16C198,424.73,197.58,424.81,197.61,424.9Z"/><path class="cls-3" d="M187.57,420a.54.54,0,0,0-.25.58.88.88,0,0,0,.58-.55C187.77,419.92,187.7,420,187.57,420Z"/><path class="cls-3" d="M198.3,423.88c.16.38-.36.76.33.8C198.67,424.33,198.7,424,198.3,423.88Z"/><path class="cls-3" d="M190.66,418a.56.56,0,0,0-.35-.62c-.12,1.77-.27,1.35.8,2.29l.16-.2c-.18-.08-.3-.28-.48-.36C191.24,418.87,190.89,418.34,190.66,418Z"/><path class="cls-3" d="M181.17,413c.07-.36-.37-1.1-.61-.56C180.39,412.8,180.8,413.35,181.17,413Z"/><path class="cls-3" d="M198,423c1.31-.74-.65-1.1-1.24-1.17a6.25,6.25,0,0,0-3.81.63c.32.33.5,0,.86.27-.22.08-.93.15-1,.47.15.41.36.45.66.12l-.14.34c.18.11,1.4.84,1.44.26,0-.15-.48-.4-.23-.57.51-.34,1.69.82,2.18,1,.13-.49-.41-.83-.82-.94l.14-.16c-.4-.34-.88-.12-1.24-.54C195.37,422.54,197.68,422.39,198,423Z"/><path class="cls-3" d="M189.63,422.75a1.79,1.79,0,0,0,.28.27,1.37,1.37,0,0,0,.26-.28C190,422.55,189.84,422.61,189.63,422.75Z"/><path class="cls-3" d="M189,420.26l.18-.17c.74,1.36,1-1.47.24-.35a1.19,1.19,0,0,0-1.65-.18c.14.19.27.39.4.6C188.45,419.87,188.79,420,189,420.26Z"/><path class="cls-3" d="M190,422.09l-.3-.15C189.52,422.35,190,422.53,190,422.09Z"/><path class="cls-3" d="M175.69,383.73c-.46.9,1,2,.19,3.11,1.21.83,1-.37,1.39-.82a2.66,2.66,0,0,0,.52.06c-.18-.11-.3-.33-.47-.45.36-.33-.29-.5-.34-.94a1,1,0,0,1,.69.23c0-.32-.4-.52-.67-.68a3.36,3.36,0,0,0,.48.14c.06-.6,0-1.74-.78-1.86C175.71,382.37,176.3,383.39,175.69,383.73Z"/><path class="cls-3" d="M180,412c.09.08.1.19.2.27-.48.3-.23.89.3.9C180.2,413,180.76,411.73,180,412Z"/><path class="cls-3" d="M178.27,392.11a1,1,0,0,0-.86.22c.25.14.27.87.67.81S178.28,392.3,178.27,392.11Z"/><path class="cls-3" d="M178.48,389.52c.09.24.29.29.55.19C178.88,389.48,178.68,389.38,178.48,389.52Z"/><path class="cls-3" d="M178.62,391a2.8,2.8,0,0,0,0,.5c.34-.66,1.43-.06,1.22-1.08S178.26,390.17,178.62,391Z"/><path class="cls-3" d="M178,383.84a2.85,2.85,0,0,0,.38.31C178.55,383.81,178.32,383.6,178,383.84Z"/><path class="cls-3" d="M178.82,388.19c-.32.1-.46.27-.25.53A.5.5,0,0,0,178.82,388.19Z"/><path class="cls-3" d="M180.36,411.32c1-.38-.65-1.16-1.07-1,.35.35.12.73-.19,1C179.43,411.6,180,411.34,180.36,411.32Z"/><path class="cls-3" d="M179.18,407.33c-.53,0-1.21-.21-.79.55C178.92,408.83,178.89,407.72,179.18,407.33Z"/><path class="cls-3" d="M195.31,243.27c-.31.49.15.89.41,1.29C195.86,244.16,196.21,243.07,195.31,243.27Z"/><path class="cls-3" d="M196.07,246.21c.7,0,.45-.82.06-1.07C195.86,245.6,195.93,245.66,196.07,246.21Z"/><path class="cls-3" d="M197,248.68c-.27.36-.94,1.14-.08,1.3A1.59,1.59,0,0,0,197,248.68Z"/><path class="cls-3" d="M196.37,250.24l-.14,1.14C196.44,251,196.7,250.68,196.37,250.24Z"/><path class="cls-3" d="M195.18,253a3,3,0,0,0-.16.53C195.91,253.83,196,252.61,195.18,253Z"/><path class="cls-3" d="M196.21,252.62a3.23,3.23,0,0,0-.22-.41,3.11,3.11,0,0,1-.11.41Z"/><path class="cls-3" d="M196.9,256c-.77.33-1.28.35-1.83.94s1.22.59-.43,1a1.62,1.62,0,0,0,2-.32C196.49,257.71,196.9,255.87,196.9,256Z"/><path class="cls-3" d="M197.58,255.39a3.68,3.68,0,0,0-.45.21,1.53,1.53,0,0,0,.37.16A2.21,2.21,0,0,0,197.58,255.39Z"/><circle class="cls-4" cx="120.73" cy="242.06" r="2.81"/><circle class="cls-4" cx="236.3" cy="311.33" r="2.81"/><circle class="cls-4" cx="158.67" cy="230.72" r="2.81"/><circle class="cls-4" cx="121.5" cy="234.36" r="2.81"/><circle class="cls-4" cx="114.18" cy="230.72" r="2.81"/><circle class="cls-4" cx="114.18" cy="237.6" r="2.81"/></g></g></g></svg>