<svg xmlns="http://www.w3.org/2000/svg" viewBox="0 0 300 300"><defs><style>.cls-1{fill:#e34040;}</style></defs><title>Nosotros</title><g id="Capa_2" data-name="Capa 2"><g id="Capa_2-2" data-name="Capa 2"><path class="cls-1" d="M264.81,12A23.21,23.21,0,0,1,288,35.19V264.81A23.21,23.21,0,0,1,264.81,288H35.19A23.21,23.21,0,0,1,12,264.81V35.19A23.21,23.21,0,0,1,35.19,12H264.81m0-12H35.19A35.18,35.18,0,0,0,0,35.19V264.81A35.18,35.18,0,0,0,35.19,300H264.81A35.18,35.18,0,0,0,300,264.81V35.19A35.18,35.18,0,0,0,264.81,0Z"/><path class="cls-1" d="M184.8,226.46v24.12H115.2V226.46h21.5V137.08H115.2V112.84h48.63V226.46ZM169.19,70.26A20.42,20.42,0,0,1,149,90.46a18.88,18.88,0,0,1-14.06-6,20.28,20.28,0,0,1,0-28.44,18.88,18.88,0,0,1,14.06-6,19.88,19.88,0,0,1,20.2,20.2Z"/></g></g></svg>